<svg width="48" height="48" viewBox="0 0 48 48" fill="none" xmlns="http://www.w3.org/2000/svg">
<g clip-path="url(#clip0_433_1753)">
<path d="M28.5 0H5.5C2.46 0 0 2.46 0 5.5V36.5C0 39.54 2.46 42 5.5 42H21.8C20.12 39.34 19 36.2 19 32.6V27.72C18.7 27.9 18.36 28 18 28H8C6.9 28 6 27.1 6 26C6 24.9 6.9 24 8 24H18C18.38 24 18.72 24.1 19.02 24.28C19.1 22.58 19.9 21.02 21.16 20H8C6.9 20 6 19.1 6 18C6 16.9 6.9 16 8 16H26C26.84 16 27.56 16.52 27.86 17.26L33.56 15.32C33.7 15.26 33.84 15.22 34 15.2V5.5C34 2.46 31.54 0 28.5 0ZM16 12H8C6.9 12 6 11.1 6 10C6 8.9 6.9 8 8 8H16C17.1 8 18 8.9 18 10C18 11.1 17.1 12 16 12Z" fill="#8D1006"/>
<path d="M46.6441 22.678L36.1441 19.106C35.7261 18.964 35.272 18.964 34.854 19.106L24.354 22.678C23.544 22.954 22.998 23.716 22.998 24.572V32.608C22.998 42.742 34.236 47.638 34.714 47.842C34.9661 47.948 35.234 48 35.5 48C35.766 48 36.034 47.948 36.284 47.84C36.762 47.636 48.0001 42.742 48.0001 32.608V24.572C48.0001 23.714 47.4561 22.954 46.6441 22.678ZM42.6 30.2L36.6 38.2C36.252 38.664 35.722 38.954 35.142 38.994C35.094 38.998 35.046 39 35 39C34.47 39 33.962 38.792 33.586 38.414L29.586 34.414C28.804 33.632 28.804 32.368 29.586 31.586C30.368 30.804 31.6321 30.804 32.4141 31.586L34.784 33.956L39.4001 27.8C40.0621 26.918 41.3161 26.736 42.1981 27.4C43.0841 28.062 43.264 29.316 42.6 30.2Z" fill="#8D1006"/>
</g>
<defs>
<clipPath id="clip0_433_1753">
<rect width="48" height="48" fill="white"/>
</clipPath>
</defs>
</svg>
