<svg width="48" height="48" viewBox="0 0 48 48" fill="none" xmlns="http://www.w3.org/2000/svg">
<g clip-path="url(#clip0_433_1886)">
<path d="M27.92 14.1501C28.0748 13.0637 28.0044 11.9572 27.7133 10.8992C27.4221 9.84118 26.9164 8.8544 26.2277 8.00019C25.5389 7.14597 24.6817 6.44259 23.7095 5.93377C22.7373 5.42495 21.6708 5.12158 20.5764 5.04252C19.4819 4.96346 18.3829 5.1104 17.3476 5.47421C16.3124 5.83802 15.363 6.41091 14.5586 7.15726C13.7543 7.90361 13.112 8.80747 12.6718 9.81263C12.2317 10.8178 12.003 11.9028 12 13.0001C12 13.9501 12.05 15.0001 13.07 15.0001C13.215 15.0017 13.3585 14.9718 13.4908 14.9125C13.623 14.8531 13.7408 14.7657 13.8359 14.6563C13.9311 14.5469 14.0013 14.4182 14.0417 14.2789C14.0821 14.1397 14.0918 13.9934 14.07 13.8501C13.9488 12.9992 14.0117 12.1322 14.2546 11.3078C14.4976 10.4834 14.9147 9.72081 15.478 9.07164C16.0412 8.42246 16.7373 7.90186 17.5192 7.54508C18.3011 7.1883 19.1505 7.00366 20.01 7.00366C20.8695 7.00366 21.7189 7.1883 22.5008 7.54508C23.2827 7.90186 23.9788 8.42246 24.542 9.07164C25.1053 9.72081 25.5224 10.4834 25.7654 11.3078C26.0083 12.1322 26.0712 12.9992 25.95 13.8501C25.9336 14.1 26.0115 14.347 26.1684 14.5422C26.3253 14.7374 26.5497 14.8666 26.7973 14.9043C27.0449 14.942 27.2976 14.8855 27.5055 14.7458C27.7134 14.6061 27.8613 14.3935 27.92 14.1501Z" fill="#8D1006"/>
<path d="M20 2.00011C21.6787 2.00021 23.3352 2.38455 24.8424 3.12367C26.3497 3.8628 27.6678 4.9371 28.6958 6.26429C29.7237 7.59148 30.4343 9.13634 30.773 10.7805C31.1118 12.4248 31.0697 14.1247 30.65 15.7501C30.5837 16.0074 30.6223 16.2804 30.7573 16.5092C30.8924 16.738 31.1127 16.9038 31.37 16.9701C31.6273 17.0364 31.9003 16.9978 32.1291 16.8628C32.3579 16.7278 32.5237 16.5074 32.59 16.2501C33.0841 14.3296 33.1323 12.3214 32.7309 10.3794C32.3294 8.43739 31.489 6.61294 30.274 5.0457C29.0589 3.47847 27.5014 2.20998 25.7206 1.33733C23.9399 0.464674 21.9831 0.0109863 20 0.0109863C18.0169 0.0109863 16.0601 0.464674 14.2794 1.33733C12.4986 2.20998 10.9411 3.47847 9.72604 5.0457C8.51098 6.61294 7.67057 8.43739 7.26914 10.3794C6.86771 12.3214 6.91589 14.3296 7.41 16.2501C7.4763 16.5074 7.64209 16.7278 7.87088 16.8628C7.98417 16.9296 8.10952 16.9735 8.23977 16.9919C8.37002 17.0104 8.50262 17.0029 8.63 16.9701C8.75738 16.9373 8.87705 16.8797 8.98217 16.8006C9.0873 16.7215 9.17581 16.6225 9.24267 16.5092C9.30953 16.3959 9.35342 16.2706 9.37183 16.1403C9.39025 16.0101 9.38283 15.8775 9.35 15.7501C8.93032 14.1247 8.88823 12.4248 9.22696 10.7805C9.56569 9.13634 10.2763 7.59148 11.3042 6.26429C12.3322 4.9371 13.6503 3.8628 15.1576 3.12367C16.6648 2.38455 18.3213 2.00021 20 2.00011Z" fill="#8D1006"/>
<path d="M38.16 24.0001C37.7528 23.9784 37.3454 24.0399 36.9628 24.1809C36.5801 24.3219 36.2302 24.5394 35.9345 24.8202C35.6387 25.1009 35.4033 25.4391 35.2427 25.8139C35.082 26.1887 34.9994 26.5923 35 27.0001V24.0001C35 23.2045 34.6839 22.4414 34.1213 21.8788C33.5587 21.3162 32.7957 21.0001 32 21.0001C31.2044 21.0001 30.4413 21.3162 29.8787 21.8788C29.3161 22.4414 29 23.2045 29 24.0001V22.0001C29 21.2045 28.6839 20.4414 28.1213 19.8788C27.5587 19.3162 26.7957 19.0001 26 19.0001C25.2044 19.0001 24.4413 19.3162 23.8787 19.8788C23.3161 20.4414 23 21.2045 23 22.0001V14.1701C23.0158 13.3804 22.7315 12.614 22.2044 12.0257C21.6774 11.4374 20.9467 11.0708 20.16 11.0001C19.7528 10.9784 19.3454 11.0399 18.9628 11.1809C18.5801 11.3219 18.2302 11.5394 17.9345 11.8202C17.6387 12.1009 17.4033 12.4391 17.2427 12.8139C17.082 13.1887 16.9994 13.5923 17 14.0001V29.0001C17 24.7601 11 23.5601 11 27.0001V35.0001C11 38.1827 12.2643 41.235 14.5147 43.4854C16.7652 45.7358 19.8174 47.0001 23 47.0001H29C32.1826 47.0001 35.2348 45.7358 37.4853 43.4854C39.7357 41.235 41 38.1827 41 35.0001V27.1701C41.0158 26.3804 40.7315 25.614 40.2044 25.0257C39.6774 24.4374 38.9467 24.0708 38.16 24.0001Z" fill="#8D1006"/>
</g>
<defs>
<clipPath id="clip0_433_1886">
<rect width="48" height="48" fill="white"/>
</clipPath>
</defs>
</svg>
