<svg width="41" height="41" viewBox="0 0 41 41" fill="none" xmlns="http://www.w3.org/2000/svg">
<rect x="0.0529836" width="40" height="40" rx="20" transform="rotate(0.0758935 0.0529836 0)" fill="#8D1006"/>
<g clip-path="url(#clip0_433_1825)">
<path d="M21.8904 18.4977L29.187 10.0387L27.4606 10.0365L21.125 17.3813L16.0823 10.0214L10.2549 10.0137L17.8805 21.1431L10.2284 30.0137L11.9549 30.0159L18.6455 22.2596L23.9709 30.0319L29.7983 30.0396L21.89 18.4977L21.8904 18.4977ZM19.5221 21.2433L18.7495 20.135L12.6017 11.3165L15.2535 11.32L20.2148 18.4368L20.9875 19.5451L27.4366 28.7959L24.7848 28.7924L19.5221 21.2437L19.5221 21.2433Z" fill="#FFF5F2"/>
</g>
<defs>
<clipPath id="clip0_433_1825">
<rect width="20" height="20" fill="white" transform="translate(10.0398 10.0132) rotate(0.0758935)"/>
</clipPath>
</defs>
</svg>
