<svg width="48" height="48" viewBox="0 0 48 48" fill="none" xmlns="http://www.w3.org/2000/svg">
<path d="M43.7775 15.825L40.4475 12.495C40.4408 12.4879 40.4326 12.4823 40.4236 12.4784C40.4146 12.4745 40.4048 12.4725 40.395 12.4725C40.3852 12.4725 40.3755 12.4745 40.3665 12.4784C40.3574 12.4823 40.3493 12.4879 40.3425 12.495C39.8128 12.9862 39.1135 13.2532 38.3912 13.2399C37.6689 13.2267 36.9799 12.9342 36.4686 12.4238C35.9573 11.9135 35.6635 11.225 35.6488 10.5028C35.6342 9.78051 35.8998 9.08065 36.39 8.55002C36.3971 8.54325 36.4028 8.53511 36.4067 8.52608C36.4105 8.51706 36.4125 8.50734 36.4125 8.49752C36.4125 8.4877 36.4105 8.47799 36.4067 8.46896C36.4028 8.45994 36.3971 8.45179 36.39 8.44502L33.06 5.11502C32.9142 4.9661 32.7403 4.84751 32.5484 4.7661C32.3565 4.68469 32.1504 4.64205 31.9419 4.64066C31.7334 4.63927 31.5268 4.67914 31.3338 4.75798C31.1408 4.83682 30.9654 4.95306 30.8175 5.10002C28.9425 6.97502 26.9325 8.98502 24.855 11.0625C24.8658 11.1718 24.8526 11.2821 24.8163 11.3857C24.78 11.4893 24.7216 11.5838 24.645 11.6625C24.5754 11.7326 24.4924 11.788 24.4009 11.8254C24.3094 11.8628 24.2113 11.8813 24.1125 11.88C24.09 11.88 24.0675 11.8725 24.045 11.8725C20.2575 15.66 16.2525 19.665 12.405 23.5125H35.5875C35.547 23.3539 35.5598 23.1863 35.6238 23.0356C35.6878 22.8849 35.7996 22.7594 35.9419 22.6784C36.0843 22.5975 36.2493 22.5655 36.4115 22.5875C36.5738 22.6094 36.7244 22.6841 36.84 22.8L37.3725 23.3325C37.4257 23.3859 37.4711 23.4465 37.5075 23.5125H38.355L43.7925 18.075C44.0878 17.7741 44.2519 17.3685 44.2491 16.9469C44.2463 16.5254 44.0767 16.122 43.7775 15.825ZM26.7675 13.785C26.6979 13.8551 26.6149 13.9105 26.5234 13.9479C26.4319 13.9853 26.3338 14.0038 26.235 14.0025C26.1363 14.0032 26.0384 13.9843 25.9471 13.9469C25.8557 13.9096 25.7726 13.8546 25.7025 13.785L25.1775 13.2525C25.0373 13.1123 24.9585 12.9221 24.9585 12.7238C24.9585 12.5255 25.0373 12.3353 25.1775 12.195C25.3178 12.0548 25.508 11.976 25.7063 11.976C25.9046 11.976 26.0948 12.0548 26.235 12.195L26.7675 12.7275C26.8371 12.7969 26.8922 12.8793 26.9299 12.97C26.9675 13.0608 26.9869 13.158 26.9869 13.2563C26.9869 13.3545 26.9675 13.4518 26.9299 13.5425C26.8922 13.6332 26.8371 13.7156 26.7675 13.785ZM28.89 15.9075C28.7478 16.0469 28.5567 16.125 28.3575 16.125C28.1584 16.125 27.9672 16.0469 27.825 15.9075L27.3 15.375C27.2289 15.3066 27.1723 15.2244 27.1336 15.1336C27.095 15.0427 27.075 14.945 27.075 14.8463C27.075 14.7475 27.095 14.6498 27.1336 14.559C27.1723 14.4681 27.2289 14.386 27.3 14.3175C27.3694 14.248 27.4518 14.1928 27.5426 14.1552C27.6333 14.1175 27.7305 14.0982 27.8288 14.0982C27.927 14.0982 28.0243 14.1175 28.115 14.1552C28.2057 14.1928 28.2881 14.248 28.3575 14.3175L28.89 14.8425C29.0305 14.9841 29.1094 15.1755 29.1094 15.375C29.1094 15.5745 29.0305 15.7659 28.89 15.9075ZM31.0125 18.03C30.8691 18.1676 30.6787 18.2453 30.48 18.2475C30.2811 18.2467 30.0902 18.1687 29.9475 18.03L29.415 17.4975C29.3455 17.4281 29.2903 17.3457 29.2527 17.255C29.215 17.1643 29.1957 17.067 29.1957 16.9688C29.1957 16.8705 29.215 16.7733 29.2527 16.6825C29.2903 16.5918 29.3455 16.5094 29.415 16.44C29.5566 16.2995 29.748 16.2207 29.9475 16.2207C30.147 16.2207 30.3384 16.2995 30.48 16.44L31.0125 16.965C31.1531 17.1066 31.2319 17.298 31.2319 17.4975C31.2319 17.697 31.1531 17.8884 31.0125 18.03ZM33.1275 20.1525C32.9878 20.291 32.7993 20.3691 32.6025 20.37C32.4036 20.3692 32.2127 20.2912 32.07 20.1525L31.5375 19.62C31.4676 19.5501 31.4121 19.4671 31.3743 19.3757C31.3364 19.2843 31.317 19.1864 31.317 19.0875C31.317 18.9886 31.3364 18.8907 31.3743 18.7993C31.4121 18.708 31.4676 18.625 31.5375 18.555C31.6075 18.4851 31.6905 18.4296 31.7818 18.3918C31.8732 18.3539 31.9711 18.3345 32.07 18.3345C32.1689 18.3345 32.2668 18.3539 32.3582 18.3918C32.4496 18.4296 32.5326 18.4851 32.6025 18.555L33.1275 19.0875C33.2681 19.2291 33.3469 19.4205 33.3469 19.62C33.3469 19.8195 33.2681 20.0109 33.1275 20.1525ZM35.25 22.2675C35.1816 22.3387 35.0995 22.3953 35.0086 22.4339C34.9177 22.4726 34.82 22.4925 34.7213 22.4925C34.6225 22.4925 34.5248 22.4726 34.434 22.4339C34.3431 22.3953 34.261 22.3387 34.1925 22.2675L33.66 21.7425C33.5195 21.6009 33.4406 21.4095 33.4406 21.21C33.4406 21.0105 33.5195 20.8191 33.66 20.6775C33.7294 20.608 33.8118 20.5528 33.9025 20.5152C33.9933 20.4775 34.0905 20.4581 34.1888 20.4581C34.287 20.4581 34.3843 20.4775 34.475 20.5152C34.5657 20.5528 34.6482 20.608 34.7175 20.6775L35.25 21.21C35.3196 21.2794 35.3747 21.3618 35.4124 21.4525C35.45 21.5433 35.4694 21.6405 35.4694 21.7388C35.4694 21.837 35.45 21.9343 35.4124 22.025C35.3747 22.1157 35.3196 22.1981 35.25 22.2675Z" fill="#8D1006"/>
<path d="M19.4822 36.542C19.2675 36.542 19.0576 36.6057 18.8791 36.7249C18.7006 36.8442 18.5615 37.0137 18.4794 37.2121C18.3972 37.4104 18.3757 37.6287 18.4176 37.8392C18.4595 38.0498 18.5628 38.2432 18.7147 38.395C18.8665 38.5468 19.0599 38.6502 19.2704 38.692C19.481 38.7339 19.6992 38.7124 19.8976 38.6303C20.0959 38.5481 20.2654 38.409 20.3847 38.2305C20.504 38.052 20.5676 37.8421 20.5676 37.6274C20.5673 37.3396 20.4529 37.0637 20.2494 36.8602C20.0459 36.6567 19.77 36.5423 19.4822 36.542Z" fill="#8D1006"/>
<path d="M41.7825 31.395C41.8024 31.3949 41.8215 31.387 41.8355 31.3729C41.8496 31.3589 41.8575 31.3398 41.8575 31.32V26.61C41.8593 26.1883 41.6936 25.7832 41.3969 25.4837C41.1002 25.1842 40.6967 25.0147 40.275 25.0125H32.0208V25.2656C32.0208 25.4645 31.9418 25.6553 31.8011 25.7959C31.6605 25.9366 31.4697 26.0156 31.2708 26.0156C31.0719 26.0156 30.8811 25.9366 30.7405 25.7959C30.5998 25.6553 30.5208 25.4645 30.5208 25.2656V25.0125H5.33254C5.12359 25.0129 4.91679 25.0547 4.72403 25.1353C4.53126 25.2159 4.35633 25.3339 4.20927 25.4823C4.06222 25.6307 3.94595 25.8068 3.86714 26.0003C3.78833 26.1938 3.74854 26.401 3.75004 26.61V31.32C3.75008 31.3398 3.75799 31.3589 3.77205 31.3729C3.7861 31.387 3.80516 31.3949 3.82504 31.395C4.54646 31.4226 5.22912 31.7287 5.72973 32.2489C6.23034 32.7691 6.50999 33.463 6.50999 34.185C6.50999 34.9069 6.23034 35.6008 5.72973 36.121C5.22912 36.6412 4.54646 36.9473 3.82504 36.975C3.80558 36.9763 3.78727 36.9846 3.77348 36.9984C3.75969 37.0122 3.75136 37.0305 3.75004 37.05V41.7675C3.74931 41.9758 3.78969 42.1823 3.86886 42.3751C3.94804 42.5678 4.06446 42.743 4.21145 42.8907C4.35845 43.0384 4.53314 43.1557 4.72551 43.2358C4.91788 43.3158 5.12416 43.3572 5.33254 43.3575H30.5393C30.5311 43.3273 30.5249 43.2966 30.5208 43.2656V42.5156C30.5208 42.3167 30.5998 42.1259 30.7405 41.9852C30.8811 41.8446 31.0719 41.7656 31.2708 41.7656C31.4697 41.7656 31.6605 41.8446 31.8011 41.9852C31.9418 42.1259 32.0208 42.3167 32.0208 42.5156V43.2656C32.0167 43.2966 32.0105 43.3273 32.0023 43.3575H40.275C40.6955 43.3557 41.0981 43.1873 41.3947 42.8893C41.6913 42.5913 41.8577 42.1879 41.8575 41.7675V37.05C41.8562 37.0305 41.8479 37.0122 41.8341 36.9984C41.8203 36.9846 41.802 36.9763 41.7825 36.975C41.0597 36.9493 40.3751 36.6441 39.8729 36.1236C39.3706 35.6032 39.09 34.9082 39.09 34.185C39.09 33.4617 39.3706 32.7667 39.8729 32.2463C40.3751 31.7258 41.0597 31.4206 41.7825 31.395ZM13.518 28.1601C14.0292 28.1602 14.529 28.3118 14.954 28.5959C15.3791 28.88 15.7104 29.2838 15.906 29.7561C16.1016 30.2284 16.1528 30.7482 16.053 31.2496C15.9533 31.751 15.7071 32.2116 15.3456 32.5731C14.984 32.9346 14.5235 33.1808 14.022 33.2806C13.5206 33.3803 13.0009 33.3292 12.5285 33.1336C12.0562 32.938 11.6524 32.6067 11.3684 32.1816C11.0843 31.7566 10.9326 31.2568 10.9325 30.7456C10.9333 30.0601 11.206 29.4029 11.6907 28.9183C12.1754 28.4336 12.8325 28.1609 13.518 28.1601ZM11.6822 40.2128C11.5368 40.2128 11.3946 40.1704 11.2729 40.091C11.1511 40.0116 11.0551 39.8985 10.9965 39.7654C10.9378 39.6324 10.9191 39.4852 10.9426 39.3418C10.9661 39.1984 11.0308 39.0648 11.1288 38.9575L20.7638 28.4047C20.8302 28.3318 20.9102 28.2727 20.9994 28.2308C21.0886 28.1889 21.1851 28.1649 21.2836 28.1603C21.382 28.1558 21.4804 28.1706 21.5731 28.2041C21.6658 28.2376 21.751 28.289 21.8237 28.3555C21.8965 28.4219 21.9555 28.5021 21.9973 28.5913C22.0391 28.6806 22.0629 28.7772 22.0673 28.8756C22.0717 28.9741 22.0567 29.0724 22.023 29.1651C21.9894 29.2577 21.9378 29.3428 21.8713 29.4155L12.2362 39.9682C12.1661 40.0455 12.0806 40.1071 11.9852 40.1493C11.8897 40.1914 11.7865 40.2131 11.6822 40.2128ZM19.4821 40.2128C18.9707 40.2128 18.4709 40.0612 18.0457 39.7771C17.6205 39.493 17.2891 39.0892 17.0934 38.6168C16.8978 38.1444 16.8466 37.6245 16.9463 37.123C17.0461 36.6215 17.2923 36.1608 17.6539 35.7992C18.0155 35.4376 18.4762 35.1914 18.9777 35.0916C19.4792 34.9919 19.9991 35.0431 20.4715 35.2387C20.9439 35.4344 21.3477 35.7658 21.6318 36.191C21.9159 36.6162 22.0675 37.116 22.0675 37.6274C22.0667 38.3129 21.7941 38.97 21.3094 39.4547C20.8247 39.9394 20.1676 40.212 19.4821 40.2128ZM32.0208 40.2656C32.0208 40.4645 31.9418 40.6553 31.8011 40.7959C31.6605 40.9366 31.4697 41.0156 31.2708 41.0156C31.0719 41.0156 30.8811 40.9366 30.7405 40.7959C30.5998 40.6553 30.5208 40.4645 30.5208 40.2656V39.5156C30.5208 39.3167 30.5998 39.1259 30.7405 38.9852C30.8811 38.8446 31.0719 38.7656 31.2708 38.7656C31.4697 38.7656 31.6605 38.8446 31.8011 38.9852C31.9418 39.1259 32.0208 39.3167 32.0208 39.5156V40.2656ZM32.0208 37.2656C32.0208 37.4645 31.9418 37.6553 31.8011 37.7959C31.6605 37.9366 31.4697 38.0156 31.2708 38.0156C31.0719 38.0156 30.8811 37.9366 30.7405 37.7959C30.5998 37.6553 30.5208 37.4645 30.5208 37.2656V36.5156C30.5208 36.3167 30.5998 36.1259 30.7405 35.9852C30.8811 35.8446 31.0719 35.7656 31.2708 35.7656C31.4697 35.7656 31.6605 35.8446 31.8011 35.9852C31.9418 36.1259 32.0208 36.3167 32.0208 36.5156V37.2656ZM32.0208 34.2656C32.0208 34.4645 31.9418 34.6553 31.8011 34.7959C31.6605 34.9366 31.4697 35.0156 31.2708 35.0156C31.0719 35.0156 30.8811 34.9366 30.7405 34.7959C30.5998 34.6553 30.5208 34.4645 30.5208 34.2656V33.5156C30.5208 33.3167 30.5998 33.1259 30.7405 32.9852C30.8811 32.8446 31.0719 32.7656 31.2708 32.7656C31.4697 32.7656 31.6605 32.8446 31.8011 32.9852C31.9418 33.1259 32.0208 33.3167 32.0208 33.5156V34.2656ZM32.0208 31.2656C32.0208 31.4645 31.9418 31.6553 31.8011 31.7959C31.6605 31.9366 31.4697 32.0156 31.2708 32.0156C31.0719 32.0156 30.8811 31.9366 30.7405 31.7959C30.5998 31.6553 30.5208 31.4645 30.5208 31.2656V30.5156C30.5208 30.3167 30.5998 30.1259 30.7405 29.9852C30.8811 29.8446 31.0719 29.7656 31.2708 29.7656C31.4697 29.7656 31.6605 29.8446 31.8011 29.9852C31.9418 30.1259 32.0208 30.3167 32.0208 30.5156V31.2656ZM32.0208 28.2656C32.0208 28.4645 31.9418 28.6553 31.8011 28.7959C31.6605 28.9366 31.4697 29.0156 31.2708 29.0156C31.0719 29.0156 30.8811 28.9366 30.7405 28.7959C30.5998 28.6553 30.5208 28.4645 30.5208 28.2656V27.5156C30.5208 27.3167 30.5998 27.1259 30.7405 26.9852C30.8811 26.8446 31.0719 26.7656 31.2708 26.7656C31.4697 26.7656 31.6605 26.8446 31.8011 26.9852C31.9418 27.1259 32.0208 27.3167 32.0208 27.5156V28.2656Z" fill="#8D1006"/>
<path d="M13.5181 31.8303C13.7327 31.8303 13.9424 31.7665 14.1208 31.6473C14.2992 31.528 14.4383 31.3584 14.5203 31.1601C14.6024 30.9618 14.6238 30.7437 14.5819 30.5332C14.5399 30.3227 14.4365 30.1294 14.2847 29.9777C14.1329 29.826 13.9395 29.7227 13.729 29.6809C13.5185 29.6391 13.3004 29.6607 13.1021 29.7429C12.9039 29.8251 12.7345 29.9642 12.6153 30.1427C12.4961 30.3212 12.4325 30.531 12.4326 30.7456C12.4329 31.0333 12.5474 31.3092 12.7509 31.5125C12.9544 31.7159 13.2304 31.8302 13.5181 31.8303Z" fill="#8D1006"/>
</svg>
