<svg width="48" height="48" viewBox="0 0 48 48" fill="none" xmlns="http://www.w3.org/2000/svg">
<path d="M43.8475 21.2342C43.5389 20.4874 42.8083 19.9997 42 19.9997H34.6521L37.9238 8.54927C38.1739 7.67231 37.799 6.73775 37.0137 6.27599C36.2323 5.81519 35.2305 5.94095 34.5859 6.58559L18.5861 22.5859C18.0139 23.1581 17.843 24.0178 18.1526 24.7656C18.4622 25.5125 19.1918 26.0002 20.0001 26.0002H28.967L24.1622 37.213C23.7845 38.0938 24.0849 39.119 24.8789 39.6562C25.2197 39.8866 25.6104 39.9998 25.9992 39.9998C26.5157 39.9998 27.0273 39.8006 27.4142 39.4138L43.4141 23.4139C43.9862 22.8418 44.1581 21.9826 43.8475 21.2342Z" fill="#8D1006"/>
<path d="M18 36H6.00004C4.89556 36 3.99988 36.8947 3.99988 38.0002C3.99988 39.1056 4.89556 40.0003 6.00004 40.0003H18C19.1045 40.0003 20.0002 39.1056 20.0002 38.0002C20.0002 36.8947 19.1045 36 18 36Z" fill="#8D1006"/>
<path d="M8.00016 30.0001H14.0002C15.1046 30.0001 16.0003 29.1054 16.0003 27.9999C16.0003 26.8945 15.1046 25.9998 14.0002 25.9998H8.00016C6.89568 25.9998 6 26.8945 6 27.9999C6 29.1054 6.89568 30.0001 8.00016 30.0001Z" fill="#8D1006"/>
<path d="M12 9.99984H26.0002C27.1056 9.99984 28.0004 9.10416 28.0004 7.99968C28.0004 6.8952 27.1056 6 26.0002 6H12C10.8956 6 9.99988 6.89568 9.99988 8.00016C9.99988 9.10464 10.8956 9.99984 12 9.99984Z" fill="#8D1006"/>
<path d="M9.99992 20.0001H15.9999C17.1044 20.0001 18.0001 19.1044 18.0001 17.9999C18.0001 16.8954 17.1044 15.9998 15.9999 15.9998H9.99992C8.89544 15.9998 7.99976 16.8954 7.99976 17.9999C7.99976 19.1044 8.89544 20.0001 9.99992 20.0001Z" fill="#8D1006"/>
</svg>
