<svg width="41" height="41" viewBox="0 0 41 41" fill="none" xmlns="http://www.w3.org/2000/svg">
<rect x="0.0529836" width="40" height="40" rx="20" transform="rotate(0.0758935 0.0529836 0)" fill="#8D1006"/>
<g clip-path="url(#clip0_433_1833)">
<path fill-rule="evenodd" clip-rule="evenodd" d="M27.9961 12.0451C25.8939 9.9349 23.096 8.77008 20.1136 8.76489C13.9681 8.75675 8.95998 13.7515 8.94936 19.8986C8.94594 21.8637 9.45673 23.7826 10.4302 25.4746L8.84081 31.25L14.7534 29.7074C16.3808 30.5979 18.2136 31.0685 20.0795 31.0715L20.0842 31.0715C26.229 31.0797 31.2377 26.0845 31.2481 19.9371C31.2533 16.9579 30.0984 14.1552 27.9961 12.0451ZM20.0865 29.1886L20.0827 29.1886C18.4199 29.1857 16.7897 28.7367 15.3678 27.8906L15.0299 27.6893L11.5213 28.6047L12.462 25.1863L12.242 24.8354C11.3163 23.3588 10.8287 21.6528 10.8319 19.9018C10.8406 14.7925 15.0033 10.6412 20.1148 10.648C22.59 10.6521 24.9155 11.6203 26.6628 13.3742C28.41 15.1282 29.3699 17.4577 29.3658 19.9339C29.3568 25.0436 25.1944 29.1954 20.0865 29.1886ZM25.1788 22.2549C24.9005 22.115 23.5317 21.4394 23.2764 21.346C23.0213 21.2527 22.8355 21.2061 22.6496 21.4847C22.4634 21.7632 21.9288 22.3901 21.7659 22.5757C21.6031 22.7614 21.4407 22.7845 21.1623 22.6446C20.8838 22.5049 19.9866 22.2094 18.9237 21.2589C18.0966 20.5191 17.5387 19.6061 17.3765 19.3271C17.2146 19.0478 17.3757 18.9118 17.4995 18.7587C17.8016 18.3846 18.1041 17.9924 18.1971 17.8067C18.2904 17.6209 18.244 17.4581 18.1744 17.3186C18.1051 17.1791 17.5498 15.8072 17.3185 15.2489C17.0929 14.7056 16.8633 14.7786 16.6922 14.7699C16.5299 14.7616 16.3441 14.7597 16.1583 14.7594C15.9726 14.7592 15.6707 14.8284 15.4149 15.1071C15.1592 15.3857 14.4387 16.0586 14.4369 17.4299C14.4351 18.8011 15.4316 20.1271 15.5706 20.3132C15.7096 20.4993 17.5311 23.3156 20.324 24.5259C20.9883 24.8141 21.5069 24.986 21.9114 25.1149C22.5786 25.3279 23.1857 25.2987 23.6659 25.2277C24.2013 25.1483 25.3149 24.5559 25.5481 23.9055C25.7811 23.255 25.7818 22.6973 25.7122 22.5809C25.6429 22.4646 25.4572 22.3948 25.1788 22.2549Z" fill="#FFF5F2"/>
</g>
<defs>
<clipPath id="clip0_433_1833">
<rect width="24" height="24" fill="white" transform="translate(8.04249 8.01074) rotate(0.0758935)"/>
</clipPath>
</defs>
</svg>
