<svg width="41" height="41" viewBox="0 0 41 41" fill="none" xmlns="http://www.w3.org/2000/svg">
<rect x="0.0529836" width="40" height="40" rx="20" transform="rotate(0.0758935 0.0529836 0)" fill="#8D1006"/>
<g clip-path="url(#clip0_433_1813)">
<path d="M26.0423 8.03458L14.0426 8.01869C10.743 8.01432 8.03915 10.711 8.03478 14.0106L8.01889 26.0109C8.01452 29.3096 10.7112 32.0143 14.0108 32.0187L26.0105 32.0346C29.3101 32.0389 32.0139 29.3414 32.0183 26.0427L32.0342 14.0424C32.0385 10.7428 29.3419 8.03895 26.0423 8.03458ZM30.0182 26.04C30.0153 28.245 28.2193 30.0374 26.0131 30.0345L14.0134 30.0186C11.8082 30.0157 10.016 28.2185 10.0189 26.0135L10.0348 14.0132C10.0378 11.8077 11.8347 10.0158 14.0399 10.0187L26.0396 10.0346C28.2458 10.0376 30.037 11.8342 30.0341 14.0397L30.0182 26.04Z" fill="white"/>
<path d="M26.5341 15.0351C27.3625 15.0362 28.0349 14.3655 28.036 13.5371C28.0371 12.7087 27.3665 12.0363 26.5381 12.0352C25.7096 12.0341 25.0372 12.7048 25.0361 13.5332C25.035 14.3616 25.7057 15.034 26.5341 15.0351Z" fill="white"/>
<path d="M20.0345 14.0265C16.7202 14.0221 14.0311 16.7044 14.0267 20.0184C14.0223 23.3312 16.7043 26.0224 20.0186 26.0268C23.332 26.0312 26.022 23.3471 26.0264 20.0343C26.0308 16.7203 23.3479 14.0309 20.0345 14.0265ZM20.0213 24.0267C17.8124 24.0238 16.0238 22.2305 16.0268 20.0211C16.0297 17.8116 17.823 16.0236 20.0319 16.0265C22.2407 16.0295 24.0293 17.8222 24.0264 20.0316C24.0234 22.2411 22.2301 24.0297 20.0213 24.0267Z" fill="white"/>
</g>
<defs>
<clipPath id="clip0_433_1813">
<rect width="24" height="24" fill="white" transform="translate(8.04249 8.01074) rotate(0.0758935)"/>
</clipPath>
</defs>
</svg>
