<svg width="41" height="41" viewBox="0 0 41 41" fill="none" xmlns="http://www.w3.org/2000/svg">
<rect x="0.0529836" width="40" height="40" rx="20" transform="rotate(0.0758935 0.0529836 0)" fill="#8D1006"/>
<path d="M20.0529 11.3C16.6529 11.3 13.9029 14.05 13.9029 17.45V19.55C13.9029 19.65 13.8529 19.75 13.7529 19.8C13.0529 20.25 12.2029 20.55 11.4029 20.7C11.1029 20.75 10.9029 21 10.9529 21.3C11.0029 21.6 11.1029 21.85 11.3029 22.05C11.6529 22.4 12.2029 22.7 12.8529 22.95C12.6529 23.35 12.4029 23.85 12.6029 24.3C12.8029 24.75 13.3029 24.95 13.8029 25.1C13.7029 25.5 13.7029 26 14.1029 26.35C14.5029 26.7 15.1029 26.75 15.6029 26.8C15.7029 27.25 15.8029 27.75 16.2529 28.05C16.7029 28.35 17.2529 28.25 17.7029 28.15C18.2029 28.55 18.9529 29.15 20.0529 29.15C21.1529 29.15 21.9029 28.55 22.4029 28.15C22.8529 28.25 23.4029 28.35 23.8529 28.05C24.3029 27.75 24.4029 27.25 24.5029 26.8C25.0029 26.75 25.6029 26.7 26.0029 26.35C26.4029 26 26.4029 25.5 26.3029 25.1C26.8029 24.95 27.3029 24.75 27.5029 24.3C27.7029 23.85 27.4529 23.35 27.2529 22.95C27.9029 22.7 28.4529 22.4 28.8029 22.05C29.0029 21.85 29.1029 21.6 29.1529 21.3C29.2029 21 29.0029 20.75 28.7029 20.7C27.9029 20.55 27.0529 20.25 26.3529 19.8C26.2529 19.75 26.2029 19.65 26.2029 19.55V17.45C26.2029 14.05 23.4529 11.3 20.0529 11.3Z" fill="#FFF5F2"/>
</svg>
