<svg width="48" height="48" viewBox="0 0 48 48" fill="none" xmlns="http://www.w3.org/2000/svg">
<path d="M25.163 18.7293C22.9753 19.0385 21.0645 21.0924 21.0461 21.1108C21.0186 21.1393 20.9876 21.1641 20.9538 21.1847C17.9814 23.1139 16.3061 21.6462 16.2368 21.5585C14.3353 19.8462 16.0799 16.9755 16.1538 16.8555C16.9327 15.5608 17.8759 14.3725 18.9599 13.3201H10.8876L7.38452 24.877C7.42215 24.8979 7.45638 24.9243 7.48606 24.9555C12.923 31.1031 20.1414 36.5585 22.9891 38.617C23.2855 38.8361 23.654 38.9346 24.0202 38.8923C24.3864 38.8501 24.7228 38.6703 24.9615 38.3894C25.2001 38.1085 25.3232 37.7475 25.3058 37.3793C25.2883 37.0111 25.1317 36.6633 24.8676 36.4062L20.9491 32.4878C20.8632 32.4013 20.8149 32.2843 20.8149 32.1624C20.8149 32.0404 20.8632 31.9235 20.9491 31.837C20.992 31.7937 21.0431 31.7594 21.0993 31.736C21.1556 31.7125 21.2159 31.7005 21.2768 31.7005C21.3378 31.7005 21.3981 31.7125 21.4543 31.736C21.5106 31.7594 21.5616 31.7937 21.6045 31.837L23.6907 33.9231L25.5368 35.7693L26.4599 36.7155C26.791 37.038 27.2353 37.218 27.6976 37.2168C28.1598 37.2157 28.6032 37.0336 28.9328 36.7094C29.2623 36.3853 29.4518 35.945 29.4606 35.4828C29.4694 35.0207 29.2969 34.5734 28.9799 34.237L25.3845 30.4847L24.7014 29.7785C24.6582 29.7356 24.6239 29.6846 24.6004 29.6283C24.577 29.5721 24.5649 29.5118 24.5649 29.4508C24.5649 29.3899 24.577 29.3296 24.6004 29.2733C24.6239 29.2171 24.6582 29.1661 24.7014 29.1231C24.7444 29.0799 24.7954 29.0456 24.8516 29.0221C24.9079 28.9987 24.9682 28.9866 25.0291 28.9866C25.0901 28.9866 25.1504 28.9987 25.2066 29.0221C25.2629 29.0456 25.3139 29.0799 25.3568 29.1231L30.6045 34.5693C30.8586 34.8208 31.1803 34.9931 31.5305 35.0653C31.8806 35.1374 32.2442 35.1064 32.5771 34.9759C32.9099 34.8454 33.1977 34.6211 33.4055 34.3301C33.6133 34.0392 33.7321 33.6942 33.7476 33.337C33.7553 33.0854 33.7099 32.8349 33.6145 32.6019C33.5191 32.369 33.3757 32.1587 33.1938 31.9847L30.0461 28.9385L27.8538 26.8108C27.8049 26.7701 27.7651 26.7198 27.7366 26.6629C27.7082 26.6061 27.6918 26.544 27.6885 26.4805C27.6852 26.417 27.695 26.3535 27.7174 26.2941C27.7398 26.2346 27.7742 26.1803 27.8185 26.1347C27.8628 26.0892 27.916 26.0532 27.9748 26.0292C28.0337 26.0052 28.0969 25.9935 28.1604 25.995C28.2239 25.9965 28.2865 26.0112 28.3441 26.038C28.4017 26.0648 28.4532 26.1032 28.4953 26.1508L34.7261 32.1831C34.8895 32.351 35.0852 32.484 35.3014 32.5742C35.5175 32.6644 35.7498 32.7099 35.984 32.7079C36.2182 32.7059 36.4497 32.6566 36.6643 32.5628C36.879 32.469 37.0724 32.3327 37.233 32.1622C37.3936 31.9916 37.5179 31.7903 37.5986 31.5704C37.6793 31.3505 37.7147 31.1165 37.7025 30.8826C37.6904 30.6487 37.631 30.4196 37.528 30.2092C37.4249 29.9989 37.2804 29.8115 37.103 29.6585L25.163 18.7293Z" fill="#8D1006"/>
<path d="M9.48004 10.6154C7.084 9.53816 4.47135 9.02953 1.84619 9.12922V27.2308H4.66619C4.96716 27.2315 5.26017 27.1341 5.50085 26.9534C5.74153 26.7727 5.91677 26.5184 6.00004 26.2292L10.237 12.2769C10.3338 11.9553 10.3104 11.6094 10.1712 11.3037C10.0319 10.998 9.78628 10.7534 9.48004 10.6154Z" fill="#8D1006"/>
<path d="M26.6585 11.5108C25.6632 11.1011 24.551 11.0764 23.5385 11.4416C21.7708 12.0878 19.1908 13.6385 16.9246 17.3401C16.9246 17.3678 15.5077 19.6478 16.8416 20.8754C16.8877 20.917 18.0785 21.9139 20.3862 20.4416C20.7185 20.0954 22.8 18.0093 25.26 17.7831C25.3236 17.7778 25.3876 17.7857 25.448 17.8064C25.5084 17.827 25.5638 17.86 25.6108 17.9031L37.7077 28.9801C37.7631 29.0308 37.8139 29.0862 37.8646 29.1416C39.2492 28.9293 40.1723 27.6647 40.44 27.2031L36.0554 15.2539L26.6585 11.5108Z" fill="#8D1006"/>
<path d="M45.2308 11.3308C42.5983 11.3133 39.9872 11.8054 37.5416 12.78C37.2127 12.9209 36.9512 13.1837 36.8118 13.5133C36.6724 13.8428 36.666 14.2135 36.7939 14.5477L41.9308 28.5277C42.0311 28.7974 42.2111 29.0302 42.4469 29.195C42.6827 29.3599 42.9631 29.4491 43.2508 29.4508H46.1539V11.3538C45.9231 11.34 45.6047 11.3308 45.2308 11.3308Z" fill="#8D1006"/>
</svg>
