<svg width="41" height="41" viewBox="0 0 41 41" fill="none" xmlns="http://www.w3.org/2000/svg">
<rect x="0.0529836" width="40" height="40" rx="20" transform="rotate(0.0758935 0.0529836 0)" fill="#8D1006"/>
<path d="M29.6138 29.6395L29.6231 22.6075C29.6276 19.1516 28.8871 16.5106 24.8551 16.5052C22.9111 16.5027 21.6137 17.5569 21.0844 18.5642L21.0364 18.5642L21.0387 16.8122L17.2227 16.8071L17.2058 29.6231L21.1898 29.6284L21.1982 23.2684C21.2004 21.5884 21.5145 19.9808 23.5785 19.9835C25.6185 19.9862 25.64 21.8823 25.6381 23.3703L25.6298 29.6103L29.6138 29.6155L29.6138 29.6395Z" fill="#FFF5F2"/>
<path d="M10.7427 16.7983L14.7267 16.8036L14.7097 29.6196L10.7257 29.6143L10.7427 16.7983Z" fill="#FFF5F2"/>
<path d="M12.7432 10.4171C11.4712 10.4154 10.4378 11.4461 10.4362 12.7181C10.4345 13.9901 11.4651 15.0474 12.7371 15.0491C14.0091 15.0508 15.0425 13.9962 15.0442 12.7242C15.0458 11.4522 14.0152 10.4188 12.7432 10.4171Z" fill="#FFF5F2"/>
</svg>
