<svg width="465" height="465" viewBox="0 0 465 465" fill="none" xmlns="http://www.w3.org/2000/svg">
<path d="M342.798 22.9711L315.596 36.6142C314.6 37.0377 313.75 37.745 313.153 38.648C312.556 39.5509 312.238 40.6096 312.238 41.692V54.4144C312.214 65.9803 315.587 77.2986 321.938 86.9644C326.839 94.4044 333.34 103.974 344.156 109.433H349.029C361.073 105.713 370.057 95.9761 375.544 87.6061C381.894 77.9398 385.267 66.6218 385.243 55.0561V41.692C385.243 40.6109 384.926 39.5535 384.331 38.6509C383.736 37.7483 382.889 37.0401 381.895 36.6142L350.908 23.4082C349.522 22.8223 344.175 22.3852 342.798 22.9711Z" fill="#E0E0E0"/>
<path d="M341.701 23.4084L310.713 36.6144C309.717 37.0379 308.868 37.7452 308.271 38.6482C307.674 39.5511 307.355 40.6098 307.356 41.6922V54.4146C307.357 66.2012 310.854 77.7228 317.404 87.5214C323.955 97.32 333.265 104.955 344.156 109.461C356.19 105.741 365.174 96.0042 370.67 87.6342C377.022 77.9582 380.395 66.6309 380.37 55.0563V41.6922C380.371 40.6098 380.053 39.5511 379.456 38.6482C378.859 37.7452 378.009 37.0379 377.013 36.6144L346.025 23.4084C345.341 23.1207 344.606 22.9725 343.863 22.9725C343.121 22.9725 342.385 23.1207 341.701 23.4084Z" fill="#F5F5F5"/>
<path d="M380.268 51.6052C380.31 51.7976 380.328 51.9943 380.324 52.1911C380.324 52.6282 380.37 53.1862 380.398 53.8744C380.426 54.5626 380.472 55.5019 380.398 56.5435C380.323 57.5851 380.398 58.7755 380.23 60.0775C380.063 61.3795 380.017 62.8675 379.747 64.3462C379.626 65.1088 379.533 65.8993 379.375 66.7084C379.217 67.5175 379.021 68.3359 378.845 69.1822C377.987 72.8541 376.789 76.4377 375.264 79.8865C373.698 83.3184 371.831 86.6048 369.684 89.7073C368.652 91.1023 367.694 92.4973 366.671 93.604C366.169 94.1899 365.741 94.7851 365.23 95.3059L363.816 96.8032C362.933 97.7332 362.03 98.5516 361.277 99.277C360.524 100.002 359.836 100.57 359.268 101.025L358.05 102.086C357.905 102.218 357.746 102.333 357.576 102.43C357.699 102.275 357.84 102.135 357.994 102.011L359.25 100.886C359.798 100.412 360.468 99.8164 361.193 99.0259C361.919 98.2354 362.812 97.51 363.667 96.5242L365.053 95.0083C365.527 94.4875 365.983 93.8923 366.466 93.3064C367.471 92.1439 368.401 90.7954 369.415 89.4004C371.52 86.3121 373.356 83.0481 374.902 79.6447C376.408 76.2212 377.607 72.67 378.482 69.0334L379.031 66.5782C379.198 65.7784 379.3 64.9879 379.431 64.2346C379.71 62.728 379.821 61.3051 379.961 60.0031C380.1 58.7011 380.119 57.5293 380.193 56.4877C380.268 55.4461 380.258 54.5626 380.258 53.8279C380.258 53.0932 380.258 52.5817 380.258 52.1446C380.243 51.965 380.246 51.7842 380.268 51.6052Z" fill="#E0E0E0"/>
<path d="M341.552 79.2638L323.78 65.1371L328.709 58.934L340.631 68.4107L358.041 48.9272L363.946 54.2096L341.552 79.2638Z" fill="white"/>
<path d="M425.512 92.5899H422.146V74.2782C422.146 72.2064 421.323 70.2193 419.858 68.7543C418.393 67.2893 416.406 66.4662 414.334 66.4662C412.262 66.4662 410.275 67.2893 408.81 68.7543C407.345 70.2193 406.522 72.2064 406.522 74.2782V92.5899H403.155V74.2782C403.155 71.3184 404.331 68.4798 406.424 66.3869C408.517 64.294 411.355 63.1182 414.315 63.1182C417.275 63.1182 420.114 64.294 422.207 66.3869C424.299 68.4798 425.475 71.3184 425.475 74.2782L425.512 92.5899Z" fill="#EBEBEB"/>
<path d="M426.526 80.1656H402.132C400.55 80.1656 399.268 81.4481 399.268 83.0301V100.914C399.268 102.496 400.55 103.778 402.132 103.778H426.526C428.108 103.778 429.39 102.496 429.39 100.914V83.0301C429.39 81.4481 428.108 80.1656 426.526 80.1656Z" fill="#EBEBEB"/>
<path d="M416.64 92.581C416.94 92.2769 417.176 91.9165 417.336 91.5207C417.495 91.1248 417.575 90.7013 417.57 90.2746C417.575 89.6558 417.406 89.0481 417.084 88.52C416.761 87.9919 416.297 87.5645 415.745 87.286C415.192 87.0074 414.573 86.8889 413.956 86.9436C413.34 86.9984 412.751 87.2244 412.256 87.596C411.762 87.9677 411.38 88.4702 411.156 89.0469C410.932 89.6236 410.873 90.2515 410.987 90.8598C411.1 91.4681 411.381 92.0326 411.799 92.4895C412.216 92.9465 412.753 93.2777 413.348 93.4459L412.641 96.5893H415.794L415.162 93.4459C415.712 93.2887 416.212 92.9905 416.612 92.581" fill="#FAFAFA"/>
<path d="M43.18 359.854C39.568 357.593 35.4864 356.19 31.2481 355.752C29.2951 355.548 27.1654 355.604 25.603 356.785C25.4216 356.888 25.2714 357.039 25.1683 357.22C25.0652 357.402 25.013 357.608 25.0171 357.817C25.1123 358.112 25.3104 358.363 25.5751 358.524C28.1086 360.331 31.0885 361.411 34.1919 361.645C37.2953 361.88 40.4037 361.26 43.18 359.854Z" fill="#E0E0E0"/>
<path d="M42.8731 359.519C40.1106 357.488 37.5308 355.22 35.1635 352.74C32.7912 350.241 31.1255 347.156 30.3367 343.802C30.1797 343.305 30.1324 342.78 30.1983 342.263C30.2641 341.746 30.4414 341.25 30.718 340.808C36.856 345.607 41.6827 351.819 42.8731 359.519Z" fill="#E0E0E0"/>
<path d="M43.1149 359.808C42.5489 356.451 42.5993 353.019 43.2637 349.681C43.9466 346.314 45.8683 343.327 48.6484 341.311C49.7086 343.794 49.2529 346.658 48.5089 349.243C47.3526 353.261 45.5462 357.062 43.1614 360.496" fill="#E0E0E0"/>
<path d="M49.1412 370.605C45.5263 371.19 42.1822 372.883 39.5714 375.45C36.8254 377.946 34.9131 381.225 34.0938 384.843C37.6835 384.62 40.7247 382.053 42.9288 379.263C45.1328 376.473 46.6488 373.321 49.0947 370.67" fill="#E0E0E0"/>
<path d="M50.4526 372.325C49.0129 368.672 48.508 364.717 48.9839 360.819C49.4597 356.922 50.9012 353.205 53.1775 350.005C55.2607 357.445 54.4888 365.815 50.4526 372.325Z" fill="#E0E0E0"/>
<path d="M58.404 381.802C55.0618 381.6 51.7336 382.382 48.8322 384.054C45.9309 385.725 43.5839 388.212 42.0825 391.204C41.8872 391.604 41.7012 392.134 41.9802 392.478C42.12 392.616 42.2917 392.717 42.4799 392.772C42.6681 392.827 42.867 392.835 43.059 392.795C46.2768 392.59 49.1226 390.656 51.4755 388.452C53.8284 386.247 55.8837 383.699 58.4784 381.793" fill="#E0E0E0"/>
<path d="M58.1531 381.3C56.4395 375.784 56.3331 369.893 57.8462 364.319C58.4507 362.133 59.4551 359.836 61.4732 358.813C61.5541 358.758 61.6454 358.721 61.7415 358.703C61.8375 358.686 61.9361 358.688 62.0312 358.711C62.1944 358.798 62.3177 358.944 62.3753 359.12C63.0575 360.646 63.3514 362.317 63.2309 363.984C63.1116 365.648 62.8566 367.299 62.4683 368.922C61.8359 371.935 61.5383 375.172 59.8364 377.776C59.4479 378.402 59.0969 379.051 58.7855 379.719C58.4786 380.38 58.4786 380.649 58.1903 381.133" fill="#E0E0E0"/>
<path d="M79.2175 384.424C78.5094 381.325 78.4863 378.108 79.1496 374.998C79.813 371.888 81.147 368.961 83.0584 366.42C83.3281 366.057 83.6908 365.676 84.1465 365.713C84.8347 365.778 85.0114 366.699 84.9835 367.387C84.6982 373.492 82.7 379.393 79.2175 384.415" fill="#E0E0E0"/>
<path d="M81.1147 385.727C84.8001 386.596 88.6303 386.656 92.3409 385.901C96.0515 385.147 99.5541 383.596 102.607 381.356C99.0111 379.547 94.8985 379.044 90.9727 379.933C87.0853 380.863 83.5327 382.556 81.1147 385.727Z" fill="#E0E0E0"/>
<path d="M82.7144 381.774C86.7599 375.19 94.5068 370.893 102.244 370.493C101.314 373.637 98.7755 376.073 95.8646 377.552C92.8805 378.891 89.7259 379.811 86.4902 380.286C85.244 380.528 83.5328 380.798 82.7702 381.774" fill="#E0E0E0"/>
<path d="M79.6174 362.589C80.8441 358.879 81.6795 355.052 82.1098 351.168C82.5421 347.261 81.7491 343.315 79.8406 339.878C76.0648 347.179 75.6835 355.688 79.5058 362.989" fill="#E0E0E0"/>
<path d="M92.3213 356.19C96.7388 348.173 105.741 341.766 114.846 340.864C111.33 349.615 101.751 356.376 92.3213 356.19Z" fill="#E0E0E0"/>
<path d="M89.5498 357.743C96.1249 358.748 101.733 362.951 107.88 365.499C109.171 366.117 110.6 366.389 112.028 366.29C112.691 366.281 113.336 366.07 113.875 365.683C114.415 365.297 114.823 364.755 115.045 364.13C115.266 363.505 115.292 362.827 115.116 362.187C114.941 361.547 114.574 360.977 114.065 360.552C113.194 359.737 112.17 359.104 111.051 358.692C104.355 355.902 97.1665 355.837 90.1171 357.529" fill="#E0E0E0"/>
<path d="M85.7368 362.356C87.2248 362.783 87.7363 363.555 88.9174 364.56C92.9522 367.988 97.7274 370.433 102.867 371.702C103.398 371.832 104.095 371.888 104.365 371.414C104.634 370.939 104.3 370.484 104.002 370.112C101.776 367.493 98.8843 365.523 95.632 364.411C92.4235 363.211 89.6428 361.77 85.8112 362.086" fill="#E0E0E0"/>
<path d="M81.4402 334.483C84.1393 336.972 87.3292 338.868 90.8047 340.05C94.2803 341.232 97.9647 341.674 101.621 341.347C101.961 341.358 102.292 341.242 102.551 341.021C103.063 340.463 102.449 339.608 101.863 339.161C95.9296 334.511 88.7407 332.651 81.4588 334.511" fill="#E0E0E0"/>
<path d="M86.5366 332.614C90.1088 329.987 94.2515 328.242 98.6267 327.521C103.002 326.8 107.486 327.124 111.712 328.466C108.417 331.517 104.191 333.371 99.7147 333.73C95.2906 334.137 90.8294 333.759 86.5366 332.614Z" fill="#E0E0E0"/>
<path d="M84.5091 319.808C83.9325 313.884 84.3045 309.216 83.8953 303.264C83.8953 302.789 83.7651 302.222 83.3187 302.045C82.6956 301.813 82.1841 302.566 81.9795 303.198C81.1163 305.956 80.8947 308.874 81.3315 311.73C81.7683 314.586 82.8519 317.305 84.4998 319.678" fill="#E0E0E0"/>
<path d="M84.0813 320.459C87.9654 317.968 91.3136 314.727 93.93 310.926C95.8644 308.276 97.5012 305.105 97.0641 301.85C95.6998 301.886 94.3597 302.219 93.1374 302.826C91.915 303.433 90.8398 304.3 89.9868 305.365C88.2978 307.509 87.0693 309.979 86.3784 312.619C85.5972 315.223 85.0485 317.901 84.1185 320.459" fill="#E0E0E0"/>
<path d="M93.7255 317.78C102.569 314.517 110.758 309.698 117.906 303.551C115.023 302.389 111.721 303.086 108.838 304.249C102.293 306.728 96.8857 311.523 93.6418 317.725" fill="#E0E0E0"/>
<path d="M86.7969 323.705C91.2403 324.336 95.7489 324.358 100.198 323.77C104.541 323.045 108.652 321.315 112.707 319.613C113.061 319.507 113.366 319.276 113.562 318.962C113.623 318.773 113.627 318.571 113.572 318.38C113.518 318.19 113.407 318.02 113.255 317.892C112.941 317.646 112.576 317.475 112.186 317.39C107.768 316.163 103.007 316.739 98.6637 318.199C94.5271 319.616 90.5499 321.461 86.7969 323.705Z" fill="#E0E0E0"/>
<path d="M61.3802 334.688C58.3391 328.55 58.5902 321.389 61.1663 315.065C63.0263 317.855 63.2402 321.463 62.9054 324.821C62.5706 328.178 61.5476 331.619 61.4732 334.986" fill="#E0E0E0"/>
<path d="M49.2063 328.559C45.4008 328.509 41.6268 329.253 38.1259 330.746C34.6251 332.239 31.4746 334.446 28.8765 337.227C32.7198 337.688 36.6125 336.968 40.0365 335.162C43.4262 333.363 46.6233 331.222 49.5783 328.773" fill="#E0E0E0"/>
<path d="M41.041 325.825C37.321 325.528 33.7591 325.072 30.1879 326.16C28.386 326.667 26.7148 327.557 25.288 328.769C23.8612 329.981 22.7125 331.486 21.9202 333.182C25.4228 333.462 28.9365 332.798 32.0944 331.257C35.2335 329.718 38.2278 327.901 41.041 325.825Z" fill="#E0E0E0"/>
<path d="M53.1309 325.956C49.7922 323.77 46.3605 321.538 42.4731 320.627C38.5857 319.715 34.1031 320.394 31.3689 323.324C34.5123 325.184 38.3346 325.388 41.9895 325.388C45.6444 325.388 50.1084 325.342 53.5494 326.56" fill="#E0E0E0"/>
<path d="M53.1495 326.132C47.4393 320.552 45.2817 310.452 47.5695 302.789C52.0754 309.689 54.0475 317.939 53.1495 326.132Z" fill="#E0E0E0"/>
<path d="M68.8201 310.247C69.8989 307.736 70.6801 305.114 71.6101 302.566C72.4905 299.98 73.8433 297.58 75.5998 295.488C77.3792 293.368 79.9212 292.031 82.6771 291.768C81.7968 295.631 80.1216 299.269 77.7583 302.448C75.395 305.628 72.3953 308.281 68.9503 310.238" fill="#E0E0E0"/>
<path d="M66.0301 313.559C64.2538 311.103 62.1892 307.774 59.7712 305.942C57.3532 304.11 54.1912 303.003 51.2617 303.701C52.7894 306.377 54.9193 308.661 57.4826 310.372C60.0459 312.083 62.9723 313.174 66.0301 313.559Z" fill="#E0E0E0"/>
<path d="M66.5788 310.452C65.3129 307.524 64.3772 304.464 63.7888 301.329C63.2044 298.156 63.7091 294.879 65.221 292.029C68.3551 297.953 69.3688 304.314 66.7741 310.499" fill="#E0E0E0"/>
<path d="M68.8853 292.02C70.6616 286.152 76.037 281.79 81.8495 279.837C82.5673 279.542 83.3463 279.427 84.1187 279.502C84.5047 279.542 84.8701 279.696 85.1683 279.944C85.4664 280.193 85.6838 280.524 85.7927 280.897C86.0066 281.892 85.1789 282.757 84.3977 283.455C79.8608 287.331 74.5831 290.246 68.8853 292.02Z" fill="#E0E0E0"/>
<path d="M68.9504 287.249C69.1736 283.455 69.4061 279.614 70.643 276.024C71.8799 272.434 74.2514 269.077 77.7017 267.505C78.2876 271.328 76.6043 275.131 74.5676 278.424C72.5309 281.716 70.0757 284.822 68.8574 288.496" fill="#E0E0E0"/>
<path d="M68.82 289.853C67.3506 285.575 67.2018 280.134 64.635 276.405C62.8401 273.801 59.985 272.025 58.4319 269.262C57.4993 271.911 57.6293 274.818 58.7946 277.372C59.9606 279.898 61.5666 282.197 63.5376 284.161C65.3976 286.188 67.053 287.714 68.82 289.853Z" fill="#E0E0E0"/>
<path d="M68.8852 415.914C68.7736 415.914 68.6713 387.363 68.662 352.144C68.6527 316.925 68.7457 288.365 68.8573 288.365C68.9689 288.365 69.0712 316.906 69.0805 352.144C69.0898 387.382 68.9968 415.914 68.8852 415.914Z" fill="#E0E0E0"/>
<path d="M93.837 330.373C93.4957 330.546 93.1373 330.683 92.7675 330.782L89.8101 331.777C87.3177 332.623 83.8953 333.851 80.1846 335.376C76.4739 336.901 73.0329 338.231 71.0613 339.942C70.2624 340.597 69.6258 341.428 69.2013 342.37C68.913 343.039 68.8665 343.449 68.8293 343.449C68.7921 343.449 68.8293 343.337 68.8293 343.142C68.8765 342.86 68.9481 342.583 69.0432 342.314C69.4156 341.318 70.0291 340.43 70.8288 339.729C72.0216 338.72 73.3566 337.893 74.7906 337.273C76.3716 336.529 78.1293 335.757 79.9893 334.995C83.7093 333.47 87.1596 332.279 89.6799 331.498C90.9447 331.107 91.9677 330.819 92.6838 330.624C93.0594 330.504 93.4455 330.42 93.837 330.373Z" fill="#E0E0E0"/>
<path d="M102.021 310.285C101.934 310.404 101.831 310.51 101.714 310.601L100.784 311.466L97.3618 314.572L85.9786 324.709C81.5332 328.671 77.6923 332.447 75.0325 335.292C73.6933 336.715 72.6424 337.896 71.9263 338.715L71.0986 339.645C71.0122 339.762 70.9088 339.865 70.7917 339.952C70.8611 339.822 70.9454 339.7 71.0428 339.589C71.2102 339.357 71.4613 339.012 71.8054 338.594C72.4843 337.738 73.5073 336.529 74.8186 335.079C78.2538 331.323 81.8859 327.753 85.6996 324.384C90.1636 320.44 94.2184 316.888 97.1665 314.34C98.6173 313.093 99.8077 312.08 100.673 311.326L101.603 310.527C101.73 310.427 101.871 310.346 102.021 310.285Z" fill="#E0E0E0"/>
<path d="M81.1984 328.736C81.0775 328.681 82.0075 326.542 82.9375 323.826C83.8675 321.11 84.3046 318.832 84.4255 318.851C84.329 320.599 83.9587 322.322 83.3281 323.956C82.9287 325.115 82.4661 326.252 81.9424 327.36C81.7555 327.849 81.5054 328.312 81.1984 328.736Z" fill="#E0E0E0"/>
<path d="M68.9131 346.016C68.6524 345.781 68.4213 345.515 68.2249 345.225L66.4672 342.974C64.9978 341.068 62.9611 338.436 60.6733 335.534C58.3855 332.633 56.293 330.075 54.7678 328.206L53.0101 326.011C52.7747 325.751 52.566 325.467 52.387 325.165C52.6585 325.388 52.9076 325.637 53.131 325.909C53.5867 326.402 54.2377 327.136 54.991 328.048C56.572 329.908 58.711 332.419 60.9988 335.302C63.2866 338.185 65.2861 340.882 66.6997 342.798C67.4158 343.728 67.9738 344.574 68.3551 345.132C68.5706 345.407 68.7576 345.703 68.9131 346.016Z" fill="#E0E0E0"/>
<path d="M63.4353 338.995C62.3326 337.775 61.5469 336.302 61.1475 334.707C60.7124 333.306 60.5359 331.838 60.6267 330.373H60.8127C60.7873 330.551 60.7272 330.721 60.636 330.876C60.636 330.876 60.636 330.68 60.636 330.346H60.822C60.9089 331.772 61.1522 333.185 61.5474 334.558C62.0689 336.081 62.6999 337.563 63.4353 338.995Z" fill="#E0E0E0"/>
<path d="M56.3766 330.15C55.8819 329.778 55.345 329.466 54.777 329.22C53.3375 328.786 51.8216 328.665 50.3316 328.867C48.8227 328.976 47.3261 329.216 45.8583 329.583C45.2483 329.771 44.6271 329.92 43.9983 330.029C44.5413 329.694 45.1349 329.449 45.756 329.304C47.2284 328.848 48.7479 328.561 50.2851 328.448C51.8278 328.243 53.397 328.412 54.8607 328.941C55.4908 329.156 56.0266 329.584 56.3766 330.15Z" fill="#E0E0E0"/>
<path d="M54.7027 327.955C54.7027 328.02 53.7727 327.583 52.2475 327.025C48.273 325.673 44.02 325.353 39.8878 326.095C38.3068 326.374 37.3582 326.672 37.3303 326.607C37.5303 326.478 37.7503 326.384 37.9813 326.328C38.5895 326.115 39.2108 325.941 39.8413 325.807C41.9195 325.351 44.053 325.201 46.1746 325.361C48.2924 325.526 50.3754 325.996 52.3591 326.756C52.9582 326.985 53.5421 327.252 54.1075 327.555C54.3253 327.657 54.526 327.792 54.7027 327.955Z" fill="#E0E0E0"/>
<path d="M68.82 318.85C68.0919 316.82 67.4954 314.745 67.0344 312.638C66.4336 310.565 65.9676 308.456 65.6394 306.323C66.3683 308.354 66.9678 310.429 67.4343 312.536C68.0296 314.609 68.4925 316.718 68.82 318.85Z" fill="#E0E0E0"/>
<path d="M68.969 318.85C68.3973 317.565 67.7353 316.322 66.9881 315.13C66.1506 314.002 65.1689 312.989 64.0679 312.117C64.483 312.223 64.868 312.424 65.1932 312.703C66.022 313.305 66.7422 314.044 67.3229 314.888C68.2114 316.041 68.7793 317.408 68.969 318.85Z" fill="#E0E0E0"/>
<path d="M68.8852 400.69C68.8852 400.69 68.755 400.001 68.4295 398.83C67.9735 397.123 67.3505 395.466 66.5695 393.882C63.8197 388.717 60.4192 383.925 56.4511 379.625C54.1912 377.04 51.9964 374.603 50.1364 372.269C48.4621 370.22 46.9508 368.043 45.6165 365.759C44.7192 364.215 43.9568 362.597 43.338 360.923C43.1241 360.328 42.9753 359.863 42.8916 359.546C42.8373 359.386 42.7968 359.221 42.7708 359.053C42.7708 359.053 43.0125 359.704 43.4868 360.867C44.1626 362.504 44.9584 364.09 45.8677 365.61C47.2304 367.859 48.7533 370.006 50.4247 372.036C52.2847 374.343 54.498 376.761 56.7579 379.346C60.755 383.673 64.1464 388.522 66.8392 393.761C67.6164 395.369 68.2182 397.056 68.6341 398.792C68.7442 399.265 68.828 399.743 68.8852 400.225C68.8994 400.379 68.8994 400.535 68.8852 400.69Z" fill="#E0E0E0"/>
<path d="M91.4378 375.227C91.0557 375.467 90.6615 375.687 90.2567 375.887C89.1851 376.486 88.1593 377.164 87.1877 377.915C85.7484 379.028 84.4017 380.257 83.1608 381.588C81.7472 383.076 80.2964 384.806 78.8084 386.666C75.8417 390.386 73.061 393.697 71.3684 396.329C70.5221 397.631 69.9083 398.728 69.5084 399.5C69.3173 399.91 69.0998 400.308 68.8574 400.69C68.8574 400.69 68.8574 400.569 68.969 400.355C69.0806 400.142 69.1736 399.825 69.3596 399.425C69.8874 398.308 70.4838 397.224 71.1452 396.18C73.4042 392.788 75.8541 389.528 78.4829 386.415C79.9709 384.555 81.4496 382.825 82.8911 381.328C84.1595 380.002 85.5377 378.785 87.011 377.691C88.0159 376.939 89.0867 376.279 90.2102 375.72C90.5118 375.565 90.8224 375.428 91.1402 375.311C91.3324 375.236 91.4316 375.208 91.4378 375.227Z" fill="#E0E0E0"/>
<path d="M91.8748 383.485C91.0507 383.666 90.2147 383.787 89.3731 383.848C87.3663 384.053 85.383 384.446 83.449 385.02C81.5361 385.641 79.7434 386.585 78.148 387.81C76.9297 388.74 76.3531 389.53 76.288 389.493C76.2229 389.456 76.381 389.26 76.6507 388.916C77.0392 388.431 77.4754 387.985 77.9527 387.586C79.535 386.265 81.3568 385.261 83.3188 384.629C85.2769 384.045 87.2961 383.689 89.3359 383.569C90.1779 383.463 91.0278 383.435 91.8748 383.485Z" fill="#E0E0E0"/>
<path d="M77.0228 388.572C76.8926 388.498 78.0179 386.777 78.8828 384.462C79.7477 382.146 79.8965 380.081 80.036 380.109C80.1154 380.552 80.1154 381.006 80.036 381.448C79.9091 382.526 79.6659 383.586 79.3106 384.61C78.9281 385.622 78.4419 386.591 77.8598 387.503C77.6435 387.904 77.3605 388.266 77.0228 388.572Z" fill="#E0E0E0"/>
<path d="M98.7381 353.037C98.6169 353.129 98.4819 353.201 98.3382 353.251L97.1664 353.781C96.6456 354.004 96.0225 354.283 95.3064 354.655C94.5903 355.027 93.7719 355.399 92.9163 355.911L91.5585 356.683C91.0842 356.962 90.6285 357.278 90.117 357.613C89.1126 358.217 88.1082 358.97 87.0294 359.733C84.75 361.463 82.5991 363.356 80.5938 365.397C78.6259 367.461 76.8137 369.668 75.1719 372C74.4372 373.106 73.7211 374.139 73.1445 375.162C72.8562 375.664 72.5493 376.148 72.2889 376.631L71.61 378.026C71.1264 378.9 70.7823 379.737 70.4382 380.453C70.0941 381.169 69.8337 381.802 69.6291 382.313C69.4245 382.825 69.2664 383.188 69.1362 383.504C69.0852 383.646 69.0197 383.784 68.9409 383.913C68.9586 383.762 68.9994 383.615 69.0618 383.476L69.4803 382.258C69.6663 381.728 69.8988 381.077 70.2243 380.351C70.5498 379.626 70.8753 378.77 71.3496 377.887C71.5728 377.431 71.8146 376.957 72.0564 376.473C72.2982 375.989 72.6051 375.543 72.9027 374.985C73.47 373.943 74.1768 372.902 74.9022 371.786C78.1666 367.013 82.2131 362.825 86.8713 359.398C87.9594 358.636 88.9824 357.892 89.9961 357.296C90.5076 356.99 90.9819 356.664 91.4562 356.366L92.8419 355.604C93.7161 355.111 94.5531 354.748 95.2692 354.404C95.8746 354.102 96.4955 353.832 97.1292 353.595L98.3382 353.13C98.4681 353.086 98.6021 353.055 98.7381 353.037Z" fill="#E0E0E0"/>
<path d="M80.9102 364.997C81.0575 364.424 81.3832 363.913 81.8402 363.537C82.9403 362.58 84.3438 362.043 85.802 362.021C87.2274 362.014 88.6401 362.289 89.9591 362.83C90.516 363.01 91.0451 363.266 91.5308 363.593C90.9615 363.486 90.404 363.324 89.8661 363.109C88.5618 362.658 87.1913 362.429 85.8113 362.43C84.443 362.46 83.12 362.926 82.0355 363.76C81.6282 364.142 81.2519 364.556 80.9102 364.997Z" fill="#E0E0E0"/>
<path d="M78.2224 367.75C78.7518 366.584 79.13 365.356 79.3477 364.095C79.423 362.818 79.3387 361.537 79.0966 360.282C79.3359 360.595 79.4955 360.962 79.5616 361.351C80.0426 363.19 79.8135 365.142 78.9199 366.82C78.5665 367.452 78.2596 367.778 78.2224 367.75Z" fill="#E0E0E0"/>
<path d="M49.1599 404.782C49.7737 415.701 53.0659 426.795 58.1251 438.021H80.1196C84.9463 426.907 88.006 415.831 88.5454 404.782H49.1599Z" fill="#E0E0E0"/>
<path d="M84.9833 422.443C84.9833 422.555 77.7386 422.648 68.8106 422.648C59.8826 422.648 52.6379 422.555 52.6379 422.443C52.6379 422.332 59.8733 422.22 68.8199 422.22C77.7665 422.22 84.9833 422.332 84.9833 422.443Z" fill="#FAFAFA"/>
<path d="M84.4906 426.396C84.4906 426.507 77.7016 426.6 69.3316 426.6C60.9616 426.6 54.1633 426.507 54.1633 426.396C54.1633 426.284 60.9523 426.191 69.3316 426.191C77.7109 426.191 84.4906 426.284 84.4906 426.396Z" fill="#FAFAFA"/>
<path d="M58.4785 411.99C58.7513 415.36 58.7513 418.747 58.4785 422.118C58.2057 418.747 58.2057 415.36 58.4785 411.99Z" fill="#FAFAFA"/>
<path d="M70.2615 411.99C70.5343 415.481 70.5343 418.989 70.2615 422.48C69.9887 418.989 69.9887 415.481 70.2615 411.99Z" fill="#FAFAFA"/>
<path d="M81.3286 411.86C81.6014 415.423 81.6014 419.001 81.3286 422.564C81.0558 419.001 81.0558 415.423 81.3286 411.86Z" fill="#FAFAFA"/>
<path d="M87.8478 411.99C87.8478 412.101 79.3569 412.194 68.8851 412.194C58.4133 412.194 49.9038 412.101 49.9038 411.99C49.9038 411.878 58.404 411.785 68.8851 411.785C79.3662 411.785 87.8478 411.832 87.8478 411.99Z" fill="#FAFAFA"/>
<path d="M429.093 310.183C431.105 309.294 432.813 307.834 434.005 305.984C435.197 304.135 435.82 301.976 435.798 299.776C435.798 293.564 431.148 288.504 425.298 288.486C419.449 288.467 414.724 293.471 414.706 299.646C414.663 301.863 415.279 304.044 416.473 305.912C417.668 307.781 419.39 309.254 421.42 310.146C405.192 312.591 405.926 330.224 405.926 330.224L444.308 330.401C444.308 330.401 445.182 312.61 429.093 310.183Z" fill="#EBEBEB"/>
<path d="M256.559 53.7627C257.973 53.485 259.276 52.8029 260.309 51.7992C261.343 50.7954 262.062 49.5132 262.381 48.1083C262.646 47.2067 262.724 46.2606 262.611 45.3278C262.498 44.395 262.196 43.495 261.724 42.6826C261.252 41.8702 260.619 41.1626 259.864 40.6027C259.11 40.0429 258.249 39.6427 257.334 39.4264C256.42 39.2101 255.471 39.1824 254.546 39.3448C253.62 39.5073 252.738 39.8565 251.951 40.3713C251.165 40.886 250.492 41.5555 249.973 42.3389C249.455 43.1222 249.101 44.0031 248.933 44.9277C248.576 46.3377 248.644 47.8222 249.131 49.1931C249.618 50.5639 250.501 51.7594 251.668 52.6281C240.945 51.7818 238.815 63.1464 238.815 63.1464L263.274 68.9403C263.274 68.9403 266.473 57.6594 256.559 53.7627Z" fill="#EBEBEB"/>
<path d="M430.144 148.437C431.316 147.703 432.248 146.642 432.823 145.384C433.399 144.126 433.592 142.726 433.38 141.36C433.31 140.455 433.055 139.574 432.632 138.771C432.208 137.968 431.624 137.261 430.916 136.693C430.209 136.125 429.392 135.708 428.517 135.468C427.641 135.227 426.726 135.169 425.828 135.297C424.929 135.424 424.066 135.734 423.292 136.208C422.518 136.682 421.849 137.31 421.327 138.052C420.805 138.795 420.441 139.636 420.257 140.525C420.073 141.414 420.073 142.331 420.258 143.22C420.429 144.603 421.008 145.905 421.92 146.96C422.832 148.015 424.037 148.775 425.382 149.144C415.515 152.129 417.551 163.029 417.551 163.029L441.434 159.69C441.434 159.69 440.364 148.502 430.144 148.437Z" fill="#F5F5F5"/>
<path d="M46.9465 151.813L34.0474 141.555L37.6186 137.053L46.2769 143.926L58.9063 129.799L63.1936 133.631L46.9465 151.813Z" fill="#F5F5F5"/>
<path d="M437.714 438.345C437.714 438.485 344.574 438.587 229.719 438.587C114.864 438.587 21.7063 438.485 21.7063 438.345C21.7063 438.206 114.818 438.104 229.719 438.104C344.621 438.104 437.714 438.215 437.714 438.345Z" fill="#263238"/>
<path d="M64.542 166.665L36.0189 180.978C34.9842 181.428 34.1042 182.172 33.4877 183.118C32.8712 184.063 32.5452 185.169 32.55 186.297V199.643C32.5173 211.782 36.052 223.664 42.7149 233.811C47.8578 241.642 54.6747 251.648 66.0114 257.368H71.1264C83.7558 253.518 93.1767 243.26 98.9334 234.481C105.599 224.334 109.137 212.453 109.108 200.312V186.297C109.106 185.164 108.772 184.056 108.148 183.11C107.523 182.165 106.634 181.423 105.592 180.978L73.0515 167.13C71.61 166.516 66.03 166.051 64.542 166.665Z" fill="#8D1006"/>
<path opacity="0.3" d="M64.542 166.665L36.0189 180.978C34.9842 181.428 34.1042 182.172 33.4877 183.118C32.8712 184.063 32.5452 185.169 32.55 186.297V199.643C32.5173 211.782 36.052 223.664 42.7149 233.811C47.8578 241.642 54.6747 251.648 66.0114 257.368H71.1264C83.7558 253.518 93.1767 243.26 98.9334 234.481C105.599 224.334 109.137 212.453 109.108 200.312V186.297C109.106 185.164 108.772 184.056 108.148 183.11C107.523 182.165 106.634 181.423 105.592 180.978L73.0515 167.13C71.61 166.516 66.03 166.051 64.542 166.665Z" fill="black"/>
<path d="M63.398 167.13L30.8946 180.978C29.8525 181.424 28.9641 182.165 28.3393 183.111C27.7144 184.056 27.3806 185.164 27.3792 186.297V199.643C27.3799 212.002 31.0464 224.084 37.9147 234.359C44.7831 244.634 54.5448 252.642 65.9648 257.368C78.5849 253.518 88.0059 243.26 93.7719 234.481C100.438 224.334 103.975 212.453 103.946 200.313V186.297C103.945 185.165 103.613 184.058 102.99 183.112C102.367 182.167 101.48 181.425 100.44 180.978L67.8899 167.13C67.1788 166.832 66.4153 166.678 65.644 166.678C64.8727 166.678 64.1092 166.832 63.398 167.13Z" fill="#8D1006"/>
<path opacity="0.3" d="M73.3752 227.661C84.346 223.406 89.79 211.063 85.5347 200.092C81.2794 189.121 68.9362 183.677 57.9654 187.932C46.9947 192.188 41.5507 204.531 45.806 215.502C50.0612 226.472 62.4044 231.916 73.3752 227.661Z" fill="black"/>
<path d="M65.658 208.98C70.5426 208.98 74.5023 205.02 74.5023 200.135C74.5023 195.251 70.5426 191.291 65.658 191.291C60.7734 191.291 56.8137 195.251 56.8137 200.135C56.8137 205.02 60.7734 208.98 65.658 208.98Z" fill="white"/>
<path d="M49.5132 221.684C50.9356 218.708 53.1803 216.202 55.982 214.462C58.7837 212.721 62.0252 211.82 65.3232 211.863C68.7049 211.864 72.024 212.776 74.9307 214.505C77.8375 216.233 80.2244 218.713 81.84 221.684C81.84 221.684 76.6227 229.403 65.1 229.124C62.1137 229.112 59.1672 228.439 56.4722 227.152C53.7771 225.866 51.4005 223.998 49.5132 221.684Z" fill="white"/>
<path d="M86.9641 207.799C86.9535 207.684 86.9535 207.569 86.9641 207.454C86.9641 207.203 86.9641 206.869 86.8804 206.45C86.8804 206.227 86.8804 205.976 86.8804 205.706C86.8804 205.436 86.7874 205.139 86.7409 204.776C86.6439 204.038 86.4948 203.308 86.2945 202.591C85.7889 200.604 84.9896 198.705 83.923 196.955C82.5241 194.632 80.6931 192.599 78.529 190.966C75.9147 188.977 72.8689 187.633 69.6382 187.041C65.9292 186.358 62.1052 186.679 58.5619 187.971C57.6031 188.304 56.6705 188.708 55.7719 189.18C54.8735 189.672 54.0096 190.225 53.1865 190.835C52.3493 191.465 51.5512 192.145 50.7964 192.872C50.0566 193.639 49.367 194.453 48.7318 195.309C47.4299 197.072 46.416 199.031 45.7279 201.112C44.277 205.426 44.277 210.097 45.7279 214.411C46.4119 216.494 47.4261 218.453 48.7318 220.214C49.367 221.073 50.0566 221.89 50.7964 222.66C51.5489 223.386 52.3472 224.063 53.1865 224.687C54.8011 225.919 56.5994 226.888 58.5154 227.561C62.0587 228.853 65.8827 229.174 69.5917 228.491C72.5374 227.936 75.3326 226.766 77.7943 225.056C80.256 223.346 82.3287 221.135 83.8765 218.568C84.9312 216.829 85.7181 214.942 86.2108 212.969C86.4103 212.249 86.5594 211.516 86.6572 210.775C86.6572 210.458 86.7688 210.161 86.7967 209.845C86.8246 209.528 86.7967 209.324 86.7967 209.101L86.8804 208.087C86.8709 207.972 86.8709 207.857 86.8804 207.743C86.8904 207.857 86.8904 207.972 86.8804 208.087C86.8804 208.347 86.8804 208.682 86.8804 209.11C86.8804 209.333 86.8804 209.584 86.8804 209.854C86.8804 210.124 86.806 210.43 86.7595 210.784C86.6852 211.535 86.5483 212.278 86.3503 213.007C85.8784 215.021 85.0973 216.951 84.0346 218.726C81.5074 223.041 77.5484 226.333 72.8457 228.032C68.1429 229.731 62.9935 229.729 58.2922 228.026C57.3349 227.682 56.4027 227.272 55.5022 226.798C54.5868 226.283 53.7102 225.702 52.8796 225.059C52.0146 224.425 51.1943 223.732 50.4244 222.985C49.6841 222.212 48.9945 221.392 48.3598 220.53C47.021 218.73 45.9787 216.726 45.2722 214.597C44.5659 212.399 44.1929 210.107 44.1655 207.799C44.1914 205.489 44.5677 203.197 45.2815 201C45.981 198.869 47.0205 196.866 48.3598 195.067C49.0137 194.192 49.7219 193.36 50.4802 192.574C51.2473 191.828 52.0645 191.135 52.9261 190.501C53.7507 189.871 54.6177 189.3 55.5208 188.789C56.4211 188.313 57.3534 187.9 58.3108 187.552C61.9274 186.242 65.8282 185.921 69.6103 186.622C72.6104 187.199 75.4526 188.41 77.9467 190.175C80.4407 191.939 82.529 194.216 84.0718 196.852C85.1347 198.631 85.9158 200.564 86.3875 202.581C86.5854 203.306 86.7223 204.047 86.7967 204.795C86.7967 205.12 86.899 205.418 86.9176 205.725V206.478C86.9176 206.906 86.9176 207.241 86.9176 207.492C86.9416 207.592 86.9572 207.695 86.9641 207.799Z" fill="#263238"/>
<path d="M103.835 196.694C103.878 196.899 103.9 197.108 103.9 197.318C103.9 197.764 103.9 198.35 103.974 199.085C104.048 199.819 104.048 200.786 103.974 201.875C103.974 202.423 103.974 203 103.974 203.623C103.974 204.246 103.974 204.897 103.853 205.576C103.723 206.943 103.63 208.45 103.342 210.049C103.221 210.849 103.118 211.677 102.951 212.523C102.784 213.369 102.579 214.234 102.393 215.127C101.499 218.972 100.253 222.726 98.673 226.343C97.0398 229.941 95.0884 233.387 92.8419 236.638C91.7631 238.098 90.768 239.512 89.6892 240.73C89.1684 241.344 88.6848 241.967 88.1733 242.516L86.6946 244.078C85.7646 245.11 84.8346 245.938 84.0348 246.673C83.3656 247.331 82.6609 247.952 81.9237 248.533L80.5473 249.649C80.3964 249.784 80.2311 249.902 80.0544 250.002C80.1867 249.846 80.333 249.703 80.4915 249.574L81.8028 248.393C82.3887 247.891 83.0862 247.268 83.8488 246.533C84.6114 245.798 85.5414 244.934 86.4435 243.901L87.8943 242.32C88.3965 241.772 88.8243 241.148 89.3823 240.535C90.4332 239.316 91.4097 237.903 92.4792 236.433C94.6867 233.196 96.6097 229.773 98.2266 226.203C99.7983 222.602 101.043 218.867 101.947 215.043L102.523 212.458C102.691 211.621 102.802 210.793 102.942 210.003C103.239 208.422 103.351 206.924 103.5 205.567C103.583 204.888 103.639 204.237 103.658 203.623L103.742 201.884C103.825 200.796 103.807 199.856 103.807 199.094C103.807 198.331 103.807 197.783 103.807 197.327C103.8 197.116 103.809 196.904 103.835 196.694Z" fill="#263238"/>
<path d="M329.973 438.346H110.066C108.625 438.322 107.203 438.014 105.881 437.44C104.56 436.866 103.364 436.037 102.363 435C101.362 433.964 100.575 432.74 100.047 431.399C99.5194 430.058 99.2611 428.627 99.2869 427.186V91.0653C99.2611 89.6246 99.5194 88.1929 100.047 86.8521C100.575 85.5113 101.362 84.2876 102.363 83.2512C103.364 82.2147 104.56 81.3857 105.881 80.8116C107.203 80.2375 108.625 79.9295 110.066 79.9053H329.973C331.414 79.9295 332.835 80.2376 334.156 80.8118C335.477 81.386 336.672 82.2151 337.673 83.2517C338.673 84.2883 339.459 85.512 339.986 86.8528C340.513 88.1936 340.77 89.625 340.743 91.0653V427.205C340.767 428.643 340.508 430.073 339.98 431.411C339.453 432.75 338.666 433.971 337.666 435.006C336.666 436.041 335.472 436.868 334.152 437.441C332.832 438.014 331.412 438.322 329.973 438.346Z" fill="#263238"/>
<path d="M224.232 422.044C224.267 424.074 223.697 426.069 222.595 427.774C221.492 429.48 219.907 430.818 218.041 431.62C216.175 432.421 214.113 432.649 212.117 432.275C210.121 431.9 208.282 430.94 206.834 429.517C205.385 428.093 204.393 426.271 203.984 424.282C203.575 422.293 203.767 420.227 204.535 418.347C205.304 416.468 206.615 414.859 208.301 413.727C209.987 412.595 211.972 411.991 214.002 411.99C216.692 411.968 219.28 413.014 221.198 414.899C223.117 416.785 224.208 419.354 224.232 422.044Z" fill="#455A64"/>
<path d="M244.758 98.8596H195.468C195.008 98.8523 194.555 98.7547 194.134 98.5722C193.712 98.3897 193.331 98.126 193.011 97.7961C192.692 97.4662 192.44 97.0766 192.271 96.6495C192.102 96.2224 192.019 95.7662 192.027 95.307C192.012 94.3787 192.366 93.4823 193.011 92.8146C193.656 92.1469 194.539 91.7622 195.468 91.7451H244.758C245.686 91.7622 246.569 92.1469 247.215 92.8146C247.86 93.4823 248.214 94.3787 248.199 95.307C248.206 95.7662 248.123 96.2224 247.954 96.6495C247.785 97.0766 247.534 97.4662 247.214 97.7961C246.894 98.126 246.513 98.3897 246.092 98.5722C245.67 98.7547 245.217 98.8523 244.758 98.8596Z" fill="#455A64"/>
<path d="M332.931 105.49H106.699V404.82H332.931V105.49Z" fill="white"/>
<path d="M332.931 105.49H323.277V404.82H332.931V105.49Z" fill="#F5F5F5"/>
<path d="M328.095 213.036C327.297 213.033 326.533 212.714 325.97 212.15C325.407 211.585 325.091 210.82 325.091 210.022V143.816C325.091 143.018 325.407 142.253 325.97 141.688C326.533 141.123 327.297 140.805 328.095 140.802C328.894 140.802 329.66 141.12 330.225 141.685C330.79 142.25 331.108 143.016 331.108 143.816V210.022C331.108 210.821 330.79 211.588 330.225 212.153C329.66 212.718 328.894 213.036 328.095 213.036Z" fill="#E0E0E0"/>
<path d="M303.422 173.613H136.617C135.344 173.613 134.124 173.107 133.224 172.207C132.324 171.307 131.818 170.087 131.818 168.814C131.818 167.541 132.324 166.321 133.224 165.421C134.124 164.521 135.344 164.015 136.617 164.015H303.422C304.695 164.015 305.915 164.521 306.815 165.421C307.715 166.321 308.221 167.541 308.221 168.814C308.221 170.087 307.715 171.307 306.815 172.207C305.915 173.107 304.695 173.613 303.422 173.613Z" fill="#E0E0E0"/>
<path d="M277.763 138.57H172.831C171.559 138.57 170.338 138.064 169.438 137.164C168.538 136.264 168.032 135.044 168.032 133.771C168.032 132.498 168.538 131.278 169.438 130.378C170.338 129.478 171.559 128.972 172.831 128.972H277.763C279.036 128.972 280.256 129.478 281.156 130.378C282.056 131.278 282.562 132.498 282.562 133.771C282.562 135.044 282.056 136.264 281.156 137.164C280.256 138.064 279.036 138.57 277.763 138.57Z" fill="#8D1006"/>
<path d="M279.735 192.929H160.304C159.031 192.929 157.811 192.423 156.911 191.523C156.011 190.623 155.505 189.403 155.505 188.13C155.505 186.857 156.011 185.637 156.911 184.737C157.811 183.837 159.031 183.331 160.304 183.331H279.735C280.365 183.331 280.989 183.455 281.571 183.696C282.153 183.938 282.682 184.291 283.128 184.737C283.574 185.182 283.927 185.711 284.168 186.293C284.409 186.876 284.534 187.5 284.534 188.13C284.534 188.76 284.409 189.384 284.168 189.966C283.927 190.549 283.574 191.078 283.128 191.523C282.682 191.969 282.153 192.322 281.571 192.563C280.989 192.805 280.365 192.929 279.735 192.929Z" fill="#E0E0E0"/>
<path d="M225.813 277.14H133.92C132.647 277.14 131.427 276.635 130.527 275.735C129.627 274.835 129.121 273.614 129.121 272.341C129.121 271.711 129.245 271.087 129.487 270.505C129.728 269.923 130.081 269.394 130.527 268.948C130.972 268.503 131.502 268.149 132.084 267.908C132.666 267.667 133.29 267.543 133.92 267.543H225.813C226.444 267.543 227.068 267.667 227.65 267.908C228.232 268.149 228.761 268.503 229.207 268.948C229.652 269.394 230.006 269.923 230.247 270.505C230.488 271.087 230.612 271.711 230.612 272.341C230.612 273.614 230.107 274.835 229.207 275.735C228.307 276.635 227.086 277.14 225.813 277.14Z" fill="#E0E0E0"/>
<path d="M300.725 257.024H133.92C132.647 257.024 131.427 256.518 130.527 255.618C129.627 254.718 129.121 253.498 129.121 252.225C129.121 251.595 129.246 250.972 129.487 250.39C129.728 249.808 130.082 249.28 130.527 248.835C130.973 248.39 131.502 248.037 132.084 247.797C132.667 247.557 133.29 247.434 133.92 247.435H300.725C301.355 247.434 301.979 247.557 302.561 247.797C303.143 248.037 303.672 248.39 304.118 248.835C304.563 249.28 304.917 249.808 305.158 250.39C305.4 250.972 305.524 251.595 305.524 252.225C305.524 252.855 305.4 253.479 305.158 254.061C304.917 254.643 304.564 255.172 304.118 255.618C303.673 256.064 303.144 256.417 302.561 256.658C301.979 256.899 301.355 257.024 300.725 257.024Z" fill="#E0E0E0"/>
<path d="M300.725 312.155H154.724C152.074 312.155 149.926 314.303 149.926 316.954C149.926 319.604 152.074 321.752 154.724 321.752H300.725C303.375 321.752 305.524 319.604 305.524 316.954C305.524 314.303 303.375 312.155 300.725 312.155Z" fill="#E0E0E0"/>
<path d="M300.725 342.24H133.92C132.647 342.24 131.427 341.734 130.527 340.834C129.627 339.935 129.121 338.714 129.121 337.441C129.126 336.172 129.634 334.956 130.533 334.06C131.433 333.164 132.651 332.661 133.92 332.661H300.725C301.355 332.661 301.979 332.785 302.561 333.026C303.144 333.267 303.673 333.621 304.118 334.067C304.564 334.512 304.917 335.041 305.158 335.623C305.4 336.206 305.524 336.83 305.524 337.46C305.519 338.729 305.011 339.945 304.112 340.841C303.212 341.737 301.994 342.24 300.725 342.24Z" fill="#E0E0E0"/>
<path d="M300.725 363.091H133.92C132.647 363.091 131.427 362.585 130.527 361.685C129.627 360.785 129.121 359.565 129.121 358.292C129.121 357.019 129.627 355.799 130.527 354.899C131.427 353.999 132.647 353.493 133.92 353.493H300.725C301.355 353.493 301.979 353.617 302.561 353.858C303.144 354.1 303.673 354.453 304.118 354.899C304.564 355.344 304.917 355.873 305.158 356.456C305.4 357.038 305.524 357.662 305.524 358.292C305.524 359.565 305.018 360.785 304.118 361.685C303.218 362.585 301.998 363.091 300.725 363.091Z" fill="#E0E0E0"/>
<path d="M141.425 316.953C141.425 317.94 141.133 318.904 140.584 319.724C140.036 320.544 139.257 321.183 138.346 321.56C137.434 321.937 136.432 322.035 135.464 321.842C134.497 321.649 133.609 321.173 132.912 320.475C132.216 319.777 131.742 318.888 131.55 317.92C131.359 316.953 131.459 315.95 131.838 315.039C132.216 314.129 132.857 313.351 133.678 312.804C134.499 312.258 135.463 311.967 136.45 311.969C137.77 311.971 139.036 312.497 139.968 313.432C140.901 314.366 141.425 315.633 141.425 316.953Z" fill="#8D1006"/>
<path d="M300.725 238.285H154.715C153.442 238.285 152.222 237.78 151.322 236.88C150.422 235.98 149.916 234.759 149.916 233.486C149.916 232.214 150.422 230.993 151.322 230.093C152.222 229.193 153.442 228.688 154.715 228.688H300.725C301.355 228.687 301.979 228.812 302.561 229.053C303.143 229.294 303.672 229.647 304.118 230.093C304.564 230.539 304.917 231.068 305.158 231.65C305.4 232.232 305.524 232.856 305.524 233.486C305.524 234.116 305.4 234.741 305.158 235.323C304.917 235.905 304.564 236.434 304.118 236.88C303.672 237.325 303.143 237.679 302.561 237.92C301.979 238.161 301.355 238.285 300.725 238.285Z" fill="#E0E0E0"/>
<path d="M136.45 238.471C139.203 238.471 141.434 236.239 141.434 233.486C141.434 230.733 139.203 228.501 136.45 228.501C133.697 228.501 131.465 230.733 131.465 233.486C131.465 236.239 133.697 238.471 136.45 238.471Z" fill="#8D1006"/>
<path d="M296.065 393.604H258.633C256.605 393.604 254.661 392.798 253.227 391.365C251.794 389.931 250.988 387.987 250.988 385.959C250.988 383.932 251.794 381.987 253.227 380.554C254.661 379.12 256.605 378.315 258.633 378.315H296.065C298.093 378.315 300.037 379.12 301.471 380.554C302.905 381.987 303.71 383.932 303.71 385.959C303.71 387.987 302.905 389.931 301.471 391.365C300.037 392.798 298.093 393.604 296.065 393.604Z" fill="#8D1006"/>
<path d="M103.23 32.8751L64.4305 52.34C63.0107 52.9436 61.7997 53.9513 60.9481 55.2377C60.0965 56.5242 59.642 58.0326 59.641 59.5754V77.729C59.5951 94.2505 64.4074 110.421 73.4794 124.229C80.473 134.85 89.7358 148.465 105.164 156.24H112.121C129.289 151.004 142.104 137.044 149.944 125.112C159.016 111.304 163.828 95.134 163.782 78.6125V59.5754C163.784 58.0368 163.335 56.5313 162.491 55.2453C161.646 53.9593 160.443 52.9492 159.03 52.34L114.799 33.4796C112.828 32.6705 105.202 32.0381 103.23 32.8751Z" fill="#8D1006"/>
<path opacity="0.3" d="M103.23 32.8751L64.4305 52.34C63.0107 52.9436 61.7997 53.9513 60.9481 55.2377C60.0965 56.5242 59.642 58.0326 59.641 59.5754V77.729C59.5951 94.2505 64.4074 110.421 73.4794 124.229C80.473 134.85 89.7358 148.465 105.164 156.24H112.121C129.289 151.004 142.104 137.044 149.944 125.112C159.016 111.304 163.828 95.134 163.782 78.6125V59.5754C163.784 58.0368 163.335 56.5313 162.491 55.2453C161.646 53.9593 160.443 52.9492 159.03 52.34L114.799 33.4796C112.828 32.6705 105.202 32.0381 103.23 32.8751Z" fill="black"/>
<path d="M101.668 33.4799L57.4648 52.3403C56.046 52.9443 54.8363 53.9523 53.9863 55.2389C53.1363 56.5255 52.6836 58.0337 52.6846 59.5757V77.7293C52.6868 94.5388 57.6741 110.97 67.0155 124.945C76.3569 138.92 89.633 149.811 105.164 156.24C122.332 151.004 135.148 137.045 142.978 125.113C152.054 111.307 156.867 95.1349 156.817 78.6128V59.5757C156.818 58.0337 156.365 56.5255 155.515 55.2389C154.665 53.9523 153.455 52.9443 152.036 52.3403L107.88 33.4799C106.899 33.0593 105.842 32.8424 104.774 32.8424C103.706 32.8424 102.649 33.0593 101.668 33.4799Z" fill="#8D1006"/>
<path d="M156.677 73.7208C156.689 73.7917 156.689 73.8639 156.677 73.9347C156.677 74.1021 156.677 74.3067 156.677 74.5578C156.677 75.153 156.724 75.9528 156.761 76.9665C156.798 77.9802 156.854 79.2822 156.761 80.7702C156.761 81.5142 156.761 82.3047 156.686 83.1417C156.686 83.5695 156.686 83.9973 156.686 84.4437C156.686 84.8901 156.603 85.3737 156.556 85.8108C156.37 87.6708 156.249 89.7168 155.859 91.8837C155.682 92.9625 155.543 94.0971 155.319 95.241C155.096 96.3849 154.817 97.566 154.557 98.775C153.328 104.002 151.619 109.105 149.451 114.018C147.235 118.908 144.59 123.592 141.546 128.014C140.077 130.004 138.756 131.93 137.268 133.594C136.552 134.431 135.901 135.278 135.203 136.022L133.195 138.161C131.948 139.556 130.665 140.662 129.596 141.695C129.047 142.197 128.554 142.68 128.08 143.099L126.778 144.15L124.918 145.675L124.425 146.066C124.313 146.149 124.248 146.186 124.248 146.177C124.248 146.168 124.248 146.121 124.388 146.019L124.853 145.601L126.647 144.01L127.959 142.866C128.433 142.448 128.889 141.936 129.447 141.434C130.498 140.393 131.753 139.277 132.981 137.872L134.962 135.715C135.65 134.971 136.292 134.124 136.989 133.287C138.431 131.632 139.779 129.707 141.211 127.707C144.225 123.294 146.849 118.627 149.051 113.757C151.201 108.869 152.909 103.799 154.157 98.6076C154.427 97.4079 154.678 96.2361 154.938 95.1015C155.198 93.9669 155.31 92.8323 155.496 91.7535C155.905 89.5959 156.045 87.5592 156.249 85.7085C156.305 85.2528 156.352 84.7785 156.398 84.36C156.445 83.9415 156.398 83.4858 156.454 83.0673C156.491 82.2303 156.528 81.4398 156.566 80.6958C156.668 79.2171 156.64 77.9058 156.64 76.9014V74.5671V73.9347C156.638 73.8617 156.651 73.789 156.677 73.7208Z" fill="#263238"/>
<path d="M122.258 98.1144H117.543V72.4557C117.46 69.6066 116.27 66.9021 114.225 64.9162C112.18 62.9303 109.442 61.8194 106.592 61.8194C103.742 61.8194 101.004 62.9303 98.9592 64.9162C96.9146 66.9021 95.7244 69.6066 95.6414 72.4557V98.1144H90.9263V72.4557C91.0259 68.3669 92.7201 64.4791 95.6472 61.6225C98.5743 58.7659 102.502 57.1669 106.592 57.1669C110.682 57.1669 114.61 58.7659 117.537 61.6225C120.464 64.4791 122.158 68.3669 122.258 72.4557V98.1144Z" fill="#F5F5F5"/>
<path d="M122.304 80.705H90.8889C87.9047 80.705 85.4856 83.1241 85.4856 86.1083V108.391C85.4856 111.375 87.9047 113.794 90.8889 113.794H122.304C125.288 113.794 127.708 111.375 127.708 108.391V86.1083C127.708 83.1241 125.288 80.705 122.304 80.705Z" fill="white"/>
<path d="M122.304 113.795C122.777 113.745 123.246 113.664 123.709 113.553C124.835 113.228 125.825 112.542 126.525 111.602C127.225 110.661 127.598 109.517 127.587 108.345C127.587 107.257 127.587 106.076 127.587 104.801C127.587 102.263 127.587 99.3703 127.587 96.1711C127.587 92.9719 127.587 89.4844 127.587 85.7272C127.517 84.7908 127.195 83.8908 126.654 83.1228C126.114 82.3548 125.376 81.7476 124.518 81.3655C123.603 80.9888 122.611 80.8358 121.626 80.9191H118.501L90.8891 80.9098C89.7285 80.9094 88.6016 81.3001 87.6904 82.019C86.7792 82.7378 86.1369 83.7428 85.8671 84.8716C85.7464 85.4336 85.6964 86.0084 85.7183 86.5828V91.8187C85.7183 96.4687 85.7183 100.858 85.7183 105.09C85.802 107.192 85.3649 109.358 86.4437 111.014C86.9213 111.827 87.61 112.496 88.4368 112.949C89.2637 113.403 90.1978 113.624 91.1402 113.59H101.603L116.752 113.674H120.863H121.932C122.056 113.662 122.181 113.662 122.304 113.674C122.181 113.688 122.056 113.688 121.932 113.674H120.863H116.752L101.603 113.748H91.1402C90.3718 113.783 89.6044 113.659 88.8856 113.385C88.1668 113.112 87.5117 112.693 86.9609 112.156C86.41 111.62 85.9751 110.975 85.683 110.264C85.3909 109.552 85.2478 108.788 85.2626 108.019V105.09C85.2626 100.858 85.2626 96.4222 85.2626 91.8187V86.62C85.2347 85.9958 85.2878 85.3705 85.4207 84.76C85.7229 83.5411 86.4274 82.4599 87.4202 81.691C88.4212 80.8992 89.6593 80.4669 90.9356 80.4634H118.445H121.57C122.618 80.3833 123.671 80.5555 124.639 80.9656C125.564 81.3786 126.359 82.0357 126.939 82.8664C127.519 83.697 127.862 84.6699 127.931 85.6807C127.931 89.4751 127.931 92.9533 127.931 96.1525C127.931 99.3517 127.931 102.244 127.931 104.783C127.931 106.057 127.931 107.238 127.931 108.326C127.932 109.345 127.649 110.343 127.113 111.209C126.383 112.412 125.211 113.28 123.848 113.627C123.349 113.779 122.825 113.836 122.304 113.795Z" fill="#263238"/>
<path d="M109.833 98.1059C110.259 97.6814 110.596 97.177 110.826 96.6215C111.056 96.0661 111.173 95.4706 111.172 94.8695C111.178 94.0031 110.941 93.1524 110.489 92.4133C110.037 91.6742 109.387 91.0762 108.613 90.6867C107.839 90.2971 106.972 90.1316 106.109 90.2087C105.246 90.2858 104.421 90.6025 103.729 91.1231C103.036 91.6436 102.503 92.3473 102.188 93.1549C101.874 93.9624 101.792 94.8416 101.951 95.6933C102.11 96.5451 102.504 97.3355 103.088 97.9754C103.672 98.6153 104.424 99.0792 105.257 99.3149L104.262 103.723H108.68L107.75 99.3149C108.522 99.0945 109.223 98.6779 109.787 98.1059" fill="#8D1006"/>
<path d="M397.872 131.288V168.972C397.956 175.482 398.914 185.712 388.572 185.377C379.654 184.447 377.282 175.956 377.217 169.874C377.217 166.991 377.152 164.582 377.124 164.294C377.124 164.294 367.359 163.494 366.531 153.841C366.131 149.191 366.094 139.51 366.159 130.758C366.199 126.226 367.943 121.874 371.045 118.569C374.147 115.264 378.379 113.248 382.899 112.921L383.829 112.856C393.938 112.707 398.04 121.198 397.872 131.288Z" fill="#FFBF9D"/>
<path d="M377.152 164.294C381.614 163.952 385.883 162.338 389.456 159.644C389.456 159.644 386.908 166.926 377.208 166.759L377.152 164.294Z" fill="#FF9A6C"/>
<path d="M382.686 134.72C382.881 134.916 383.997 134.014 385.606 133.976C387.215 133.939 388.396 134.72 388.6 134.516C388.805 134.311 388.489 134.06 387.959 133.697C387.251 133.222 386.411 132.981 385.559 133.009C384.714 133.036 383.899 133.332 383.234 133.855C382.751 134.265 382.593 134.627 382.686 134.72Z" fill="#263238"/>
<path d="M382.658 139.287C382.677 139.629 382.83 139.95 383.085 140.18C383.339 140.409 383.673 140.53 384.016 140.514C384.182 140.516 384.348 140.484 384.502 140.42C384.656 140.356 384.796 140.262 384.913 140.143C385.03 140.024 385.122 139.883 385.183 139.728C385.245 139.573 385.275 139.407 385.271 139.24C385.249 138.901 385.097 138.583 384.845 138.354C384.593 138.125 384.263 138.002 383.923 138.013C383.756 138.013 383.59 138.046 383.436 138.11C383.282 138.174 383.142 138.268 383.025 138.386C382.907 138.505 382.814 138.645 382.751 138.8C382.688 138.955 382.657 139.12 382.658 139.287Z" fill="#263238"/>
<path d="M378.64 146.01C377.838 145.824 377.017 145.736 376.194 145.75C375.813 145.75 375.45 145.685 375.366 145.434C375.304 145.044 375.363 144.645 375.534 144.29C375.831 143.36 376.129 142.365 376.464 141.323C377.719 137.101 378.603 133.641 378.435 133.595C378.268 133.548 377.106 136.924 375.85 141.146C375.552 142.188 375.264 143.183 374.985 144.132C374.783 144.606 374.753 145.135 374.901 145.629C374.964 145.76 375.056 145.874 375.171 145.963C375.286 146.052 375.419 146.113 375.562 146.141C375.778 146.166 375.996 146.166 376.213 146.141C377.024 146.194 377.839 146.15 378.64 146.01Z" fill="#263238"/>
<path d="M383.374 127.837C383.532 128.2 384.825 127.93 386.378 128.005C387.931 128.079 389.168 128.423 389.382 128.079C389.456 127.921 389.214 127.586 388.694 127.27C388 126.881 387.223 126.661 386.428 126.629C385.633 126.596 384.841 126.752 384.118 127.084C383.569 127.354 383.309 127.67 383.374 127.837Z" fill="#263238"/>
<path d="M368.02 130.256C368.196 130.554 369.452 130.256 370.986 130.182C372.521 130.107 373.776 130.331 373.944 130.024C374.009 129.875 373.758 129.615 373.228 129.382C372.51 129.096 371.739 128.969 370.968 129.01C370.186 129.032 369.418 129.222 368.717 129.568C368.196 129.838 367.945 130.117 368.02 130.256Z" fill="#263238"/>
<path d="M353.4 122.1C353.454 121.904 353.547 121.72 353.673 121.561C353.799 121.401 353.956 121.268 354.135 121.17C354.906 120.819 355.757 120.681 356.599 120.77C359.175 120.723 361.686 119.959 363.853 118.566C364.865 117.112 365.994 115.744 367.229 114.474C370.159 111.461 372.558 109.406 375.05 108.401C378.268 107.108 383.653 106.541 387.01 107.471C390.367 108.401 393.381 111.08 393.855 114.511C395.715 112.921 398.561 112.94 400.858 113.86H400.914C403.462 114.79 404.913 117.469 405.666 120.073C406.419 122.677 406.745 125.467 408.121 127.801C408.409 128.285 408.754 128.87 408.502 129.382C408.386 129.567 408.216 129.713 408.015 129.799C407.814 129.885 407.592 129.909 407.377 129.866C406.946 129.773 406.54 129.589 406.187 129.326C406.475 130.014 406.754 130.693 407.042 131.372C406.111 131.534 405.155 131.474 404.252 131.195C403.784 133.517 403.178 135.809 402.439 138.059C401.487 137.947 400.526 138.181 399.733 138.719C398.803 139.528 398.44 141.044 396.943 140.468C396.189 140.17 395.501 138.608 395.241 137.817C393.558 132.666 393.003 127.214 393.613 121.83C392.555 120.704 391.293 119.789 389.893 119.133L390.005 119.236C387.308 118.306 384.257 117.376 381.7 118.64C379.719 119.626 378.556 121.682 377.05 123.29C375.686 124.82 374.026 126.056 372.17 126.924C370.314 127.792 368.301 128.274 366.253 128.34C366.113 131.056 366.336 134.897 366.197 137.64L363.909 133.288C363.729 132.986 363.565 132.676 363.416 132.358V132.265C363.187 131.734 362.929 131.215 362.644 130.712C362.327 130.966 361.93 131.099 361.524 131.086C361.118 131.073 360.73 130.916 360.43 130.641C360.13 130.367 359.938 129.995 359.889 129.592C359.839 129.189 359.936 128.781 360.161 128.443C360.39 128.127 360.666 127.848 360.979 127.615C360.648 127.938 360.237 128.169 359.788 128.285C359.34 128.401 358.869 128.397 358.422 128.275C357.979 128.14 357.593 127.863 357.324 127.486C357.055 127.11 356.918 126.655 356.934 126.192C356.972 125.881 357.091 125.585 357.279 125.334C357.466 125.083 357.716 124.885 358.003 124.76C356.806 124.856 355.607 124.59 354.562 123.997C353.818 123.597 353.149 122.956 353.4 122.1Z" fill="#263238"/>
<path d="M390.795 115.637C391.132 115.919 391.443 116.23 391.725 116.567C392.489 117.485 392.999 118.588 393.204 119.766C393.373 120.573 393.457 121.396 393.455 122.221C393.455 123.151 393.39 124.081 393.316 125.067C393.228 126.118 393.206 127.174 393.251 128.229C393.277 128.792 393.348 129.351 393.465 129.903C393.551 130.491 393.785 131.047 394.143 131.521C394.312 131.709 394.527 131.849 394.767 131.929C395.006 132.009 395.263 132.025 395.511 131.977C395.982 131.89 396.411 131.648 396.729 131.288C397.255 130.569 397.576 129.721 397.659 128.833H397.464C397.751 129.563 398.146 130.247 398.635 130.861C399.103 131.425 399.768 131.791 400.495 131.884C400.837 131.918 401.181 131.857 401.49 131.707C401.778 131.557 402.015 131.323 402.169 131.037C402.309 130.774 402.379 130.48 402.374 130.182C402.359 129.904 402.247 129.641 402.058 129.438L401.955 129.531C402.531 130.188 403.237 130.717 404.029 131.084C404.308 131.208 404.522 131.292 404.671 131.335L404.904 131.391L404.69 131.298C404.541 131.233 404.327 131.149 404.067 131.019C403.299 130.63 402.616 130.092 402.058 129.438L401.955 129.531C402.114 129.733 402.205 129.98 402.217 130.236C402.228 130.493 402.16 130.747 402.021 130.963C401.883 131.215 401.672 131.419 401.416 131.549C401.127 131.688 400.804 131.74 400.486 131.698C399.807 131.62 399.182 131.287 398.738 130.768C398.27 130.164 397.891 129.497 397.612 128.787L397.473 128.48L397.408 128.815C397.308 129.664 396.988 130.472 396.478 131.158C396.186 131.474 395.802 131.689 395.38 131.772C395.17 131.815 394.952 131.802 394.749 131.735C394.545 131.668 394.362 131.55 394.218 131.391C393.883 130.947 393.669 130.425 393.595 129.875C393.48 129.335 393.405 128.788 393.372 128.238C393.327 127.19 393.349 126.14 393.437 125.095C393.492 124.09 393.558 123.142 393.548 122.24C393.542 121.404 393.449 120.572 393.269 119.756C393.043 118.557 392.5 117.44 391.698 116.52C391.449 116.176 391.144 115.877 390.795 115.637Z" fill="#455A64"/>
<path d="M360.933 125.02L361.017 125.085C361.093 125.149 361.174 125.209 361.259 125.261C361.385 125.365 361.523 125.456 361.668 125.531C361.858 125.643 362.053 125.746 362.254 125.838C363.547 126.425 364.966 126.68 366.383 126.582C368.491 126.44 370.513 125.69 372.205 124.424C374.251 122.867 375.955 120.904 377.208 118.658C377.915 117.496 378.482 116.296 379.068 115.19C379.669 114.109 380.42 113.119 381.3 112.251C382.074 111.462 383.033 110.88 384.09 110.558C384.568 110.426 385.064 110.369 385.559 110.391C386.01 110.425 386.454 110.519 386.88 110.67C387.631 110.925 388.319 111.337 388.898 111.879C389.335 112.288 389.703 112.765 389.986 113.292C390.211 113.753 390.377 114.241 390.479 114.743C390.479 114.743 390.479 114.743 390.479 114.641C390.479 114.539 390.479 114.464 390.433 114.343C390.355 113.966 390.23 113.601 390.061 113.255C389.41 111.976 388.29 110.996 386.936 110.521C386.488 110.365 386.023 110.268 385.55 110.233C385.036 110.211 384.522 110.267 384.025 110.4C382.937 110.721 381.948 111.313 381.151 112.121C380.274 112.999 379.532 114.002 378.947 115.097C378.306 116.213 377.729 117.403 377.041 118.565C375.796 120.782 374.116 122.724 372.102 124.276C370.446 125.531 368.464 126.283 366.392 126.443C364.997 126.553 363.596 126.323 362.309 125.773C361.835 125.551 361.376 125.299 360.933 125.02Z" fill="#455A64"/>
<path d="M360.059 120.779C360.059 120.779 360.171 120.881 360.403 121.021C360.731 121.219 361.073 121.393 361.426 121.541C361.952 121.765 362.497 121.942 363.054 122.071C363.734 122.232 364.429 122.325 365.128 122.35C365.828 122.368 366.528 122.321 367.22 122.211C367.78 122.116 368.331 121.973 368.866 121.783C369.231 121.659 369.585 121.506 369.926 121.327C370.055 121.27 370.176 121.198 370.289 121.114C370.289 121.114 369.74 121.346 368.82 121.634C368.283 121.794 367.736 121.918 367.183 122.006C366.505 122.101 365.821 122.141 365.137 122.127C364.452 122.097 363.771 122.013 363.1 121.876C362.552 121.756 362.015 121.594 361.491 121.393C360.598 121.048 360.078 120.742 360.059 120.779Z" fill="#455A64"/>
<path d="M367.954 134.72C368.14 134.916 369.256 134.013 370.875 133.976C372.493 133.939 373.665 134.72 373.869 134.516C374.074 134.311 373.748 134.06 373.228 133.697C372.516 133.222 371.674 132.982 370.819 133.009C369.976 133.035 369.164 133.332 368.503 133.855C368.01 134.265 367.852 134.627 367.954 134.72Z" fill="#263238"/>
<path d="M369.601 139.287C369.622 139.626 369.775 139.944 370.027 140.173C370.278 140.403 370.609 140.525 370.949 140.514C371.116 140.516 371.282 140.484 371.437 140.42C371.592 140.356 371.732 140.262 371.85 140.144C371.967 140.025 372.06 139.884 372.123 139.729C372.186 139.574 372.217 139.408 372.214 139.24C372.19 138.9 372.035 138.582 371.782 138.353C371.529 138.124 371.197 138.002 370.856 138.013C370.69 138.013 370.525 138.046 370.371 138.11C370.218 138.174 370.079 138.268 369.962 138.387C369.845 138.506 369.753 138.646 369.691 138.801C369.629 138.955 369.598 139.12 369.601 139.287Z" fill="#263238"/>
<path d="M397.622 138.495C397.78 138.412 404.132 136.05 404.383 142.662C404.634 149.274 397.956 148.177 397.938 147.991C397.919 147.805 397.622 138.495 397.622 138.495Z" fill="#FFBF9D"/>
<path d="M399.9 145.405C399.9 145.405 400.021 145.48 400.216 145.563C400.495 145.671 400.803 145.671 401.081 145.563C401.497 145.275 401.828 144.88 402.041 144.421C402.253 143.961 402.339 143.454 402.29 142.95C402.29 142.382 402.159 141.822 401.909 141.313C401.836 141.106 401.713 140.92 401.551 140.772C401.389 140.624 401.192 140.519 400.979 140.467C400.846 140.441 400.708 140.46 400.588 140.523C400.468 140.585 400.373 140.687 400.319 140.811C400.235 140.997 400.319 141.127 400.244 141.146C400.17 141.164 400.105 141.043 400.142 140.764C400.176 140.6 400.261 140.451 400.384 140.337C400.563 140.196 400.788 140.127 401.016 140.141C401.289 140.185 401.547 140.298 401.765 140.469C401.983 140.64 402.154 140.863 402.262 141.118C402.574 141.688 402.737 142.328 402.737 142.978C402.737 144.308 402.123 145.582 401.174 145.898C400.999 145.957 400.813 145.976 400.629 145.953C400.446 145.931 400.27 145.867 400.114 145.768C399.9 145.563 399.835 145.414 399.9 145.405Z" fill="#FF9A6C"/>
<path d="M383.346 147.331C383.402 147.331 383.402 147.721 383.178 148.261C382.854 148.986 382.324 149.601 381.653 150.028C381.001 150.467 380.226 150.688 379.44 150.66C378.835 150.604 378.51 150.4 378.51 150.353C378.51 150.307 378.882 150.353 379.44 150.353C380.149 150.301 380.833 150.07 381.43 149.683C382.032 149.297 382.537 148.779 382.909 148.168C383.16 147.656 383.271 147.312 383.346 147.331Z" fill="#263238"/>
<path d="M416.64 408.819L418.612 431.139L425.605 448.4C425.72 448.701 425.769 449.022 425.75 449.344C425.731 449.665 425.644 449.978 425.495 450.263C425.345 450.548 425.137 450.798 424.883 450.996C424.63 451.195 424.337 451.337 424.024 451.413C423.654 451.523 423.264 451.547 422.884 451.483C422.503 451.418 422.142 451.267 421.829 451.041C417.84 448.14 403.453 437.463 403.295 436.078C403.09 434.273 399.417 412.297 399.417 412.297L416.64 408.819Z" fill="#455A64"/>
<path d="M424.08 451.44L402.95 433.556L403.164 435.212C403.304 436.142 403.322 436.607 403.955 437.174C409.57 442.26 415.469 447.023 421.625 451.44C422.003 451.617 422.416 451.709 422.834 451.709C423.251 451.709 423.664 451.617 424.043 451.44H424.08Z" fill="#263238"/>
<path d="M407.061 426.582C407.37 426.742 407.607 427.014 407.721 427.343C407.835 427.672 407.819 428.032 407.675 428.349C407.489 428.656 407.197 428.884 406.855 428.992C406.513 429.1 406.143 429.079 405.815 428.935C405.492 428.764 405.247 428.476 405.129 428.13C405.012 427.785 405.031 427.407 405.182 427.075C405.408 426.773 405.736 426.565 406.106 426.492C406.475 426.418 406.858 426.483 407.182 426.675" fill="white"/>
<path d="M417.514 442.234C417.654 442.29 418.053 441.062 419.374 440.299C420.213 439.89 421.116 439.629 422.043 439.528C422.043 439.472 421.736 439.332 421.178 439.314C420.442 439.307 419.718 439.504 419.086 439.881C418.469 440.238 417.971 440.768 417.654 441.406C417.449 441.89 417.449 442.225 417.514 442.234Z" fill="#263238"/>
<path d="M419.541 445.052C419.662 445.145 420.341 444.336 421.532 443.889C422.283 443.672 423.047 443.501 423.819 443.378C423.428 443.199 423.002 443.111 422.571 443.12C422.141 443.13 421.719 443.237 421.336 443.433C419.978 443.954 419.43 445.005 419.541 445.052Z" fill="#263238"/>
<path d="M413.934 438.727C414.865 437.988 415.851 437.319 416.882 436.728C417.997 436.271 419.144 435.895 420.314 435.602C419.046 435.412 417.752 435.654 416.64 436.29C414.724 437.211 413.85 438.671 413.934 438.727Z" fill="#263238"/>
<path d="M412.734 431.976C412.808 432.106 414.064 431.455 415.756 431.232C417.449 431.009 418.853 431.232 418.891 431.111C417.893 430.632 416.763 430.501 415.682 430.739C414.587 430.804 413.548 431.241 412.734 431.976Z" fill="#263238"/>
<path d="M411.99 425.429C412.968 424.938 414.035 424.647 415.127 424.573C416.22 424.5 417.316 424.645 418.351 425.001C418.351 424.945 418.1 424.694 417.514 424.452C416.743 424.15 415.914 424.023 415.087 424.08C414.262 424.127 413.459 424.366 412.743 424.778C412.185 425.094 411.934 425.382 411.99 425.429Z" fill="#263238"/>
<path d="M414.919 423.327C414.919 423.327 414.975 423.02 414.863 422.48C414.7 421.712 414.384 420.985 413.933 420.341C413.627 419.833 413.164 419.438 412.613 419.216C412.422 419.159 412.218 419.158 412.027 419.214C411.835 419.27 411.664 419.381 411.534 419.532C411.423 419.681 411.343 419.851 411.299 420.031C411.254 420.212 411.245 420.399 411.274 420.583C411.435 421.349 411.857 422.035 412.467 422.526C413.078 423.016 413.839 423.279 414.622 423.271C415.403 423.283 416.172 423.067 416.833 422.649C417.493 422.231 418.018 421.629 418.342 420.918C418.415 420.744 418.449 420.556 418.439 420.367C418.429 420.179 418.377 419.995 418.286 419.83C418.167 419.668 418.002 419.546 417.814 419.478C417.625 419.41 417.42 419.4 417.226 419.448C416.663 419.63 416.155 419.95 415.747 420.378C415.168 420.911 414.687 421.54 414.324 422.238C414.174 422.485 414.079 422.761 414.045 423.048C414.576 422.141 415.237 421.317 416.007 420.602C416.373 420.241 416.819 419.973 417.309 419.82C417.415 419.791 417.527 419.794 417.63 419.831C417.733 419.868 417.823 419.936 417.886 420.025C417.937 420.137 417.964 420.26 417.964 420.383C417.964 420.507 417.937 420.629 417.886 420.741C417.59 421.344 417.131 421.853 416.56 422.208C415.99 422.563 415.331 422.751 414.659 422.75C413.996 422.752 413.351 422.532 412.828 422.124C412.305 421.716 411.934 421.143 411.776 420.499C411.731 420.244 411.784 419.982 411.925 419.765C411.994 419.678 412.089 419.616 412.195 419.584C412.301 419.552 412.414 419.554 412.52 419.588C412.986 419.775 413.385 420.1 413.664 420.518C414.252 421.369 414.678 422.321 414.919 423.327Z" fill="#263238"/>
<path d="M360.338 409.972L361.212 428.898C361.212 428.898 341.041 436.096 340.845 439.611L379.952 439.323L379.868 409.777L360.338 409.972Z" fill="#455A64"/>
<path d="M373.293 427.214C373.661 427.305 373.981 427.532 374.188 427.85C374.395 428.167 374.474 428.552 374.409 428.925C374.296 429.292 374.051 429.603 373.72 429.797C373.39 429.992 372.998 430.056 372.623 429.976C372.235 429.881 371.898 429.641 371.68 429.306C371.463 428.971 371.381 428.565 371.452 428.172C371.605 427.795 371.896 427.49 372.265 427.317C372.634 427.145 373.054 427.118 373.442 427.242" fill="#E0E0E0"/>
<path d="M379.951 439.323L379.821 436.347L342.37 437.732C342.37 437.732 340.64 438.458 340.845 439.592L379.951 439.323Z" fill="#263238"/>
<path d="M360.58 428.73C360.58 428.907 361.51 428.981 362.44 429.549C363.37 430.116 363.89 430.869 364.067 430.795C364.244 430.72 363.946 429.688 362.793 429.019C361.64 428.349 360.533 428.554 360.58 428.73Z" fill="#263238"/>
<path d="M356.488 430.339C356.488 430.516 357.278 430.813 357.929 431.567C358.58 432.32 358.785 433.129 358.971 433.12C359.157 433.11 359.278 432.087 358.441 431.167C357.604 430.246 356.497 430.172 356.488 430.339Z" fill="#263238"/>
<path d="M354.2 434.97C354.376 434.97 354.627 434.115 354.134 433.11C353.642 432.106 352.739 431.753 352.656 431.901C352.572 432.05 353.139 432.571 353.53 433.38C353.921 434.189 354.014 434.961 354.2 434.97Z" fill="#263238"/>
<path d="M360.887 424.378C360.97 424.545 361.817 424.294 362.923 424.378C364.03 424.462 364.848 424.75 364.941 424.601C365.034 424.452 364.235 423.811 362.961 423.755C361.686 423.699 360.84 424.238 360.887 424.378Z" fill="#263238"/>
<path d="M353.53 274.052C353.53 275.14 358.069 426.433 358.069 426.433H382.249L387.15 297.014C387.15 297.014 392.869 364.681 392.869 366.141C392.869 367.601 397.91 427.158 397.91 427.158L420.323 425.437L418.844 289.23L416.11 269.253L353.53 274.052Z" fill="#263238"/>
<path d="M389.67 292.224C389.363 292.398 389.035 292.529 388.693 292.615C388.052 292.838 387.112 293.145 385.959 293.545L385.745 293.61V293.396C385.615 291.583 385.457 289.146 385.317 286.477C385.159 283.585 385.048 280.971 384.992 279.037C384.992 278.107 384.945 277.317 384.945 276.786C384.918 276.509 384.937 276.23 385.001 275.959C385.079 276.225 385.123 276.5 385.131 276.777C385.197 277.307 385.262 278.079 385.327 279.018C385.475 280.878 385.643 283.529 385.792 286.458C385.94 289.128 386.043 291.564 386.099 293.387L385.866 293.238C387.038 292.913 387.987 292.652 388.656 292.485C388.985 292.365 389.324 292.278 389.67 292.224Z" fill="#455A64"/>
<path d="M387.81 276.498C387.81 276.498 387.884 276.378 388.135 276.294C388.489 276.201 388.864 276.233 389.196 276.387C389.446 276.478 389.659 276.648 389.805 276.871C389.951 277.094 390.021 277.358 390.005 277.624C389.973 277.96 389.833 278.277 389.604 278.525C389.376 278.774 389.072 278.941 388.74 279C388.402 279.051 388.056 279.007 387.741 278.874C387.426 278.742 387.154 278.524 386.954 278.247C386.815 278.032 386.74 277.782 386.74 277.526C386.74 277.27 386.815 277.02 386.954 276.805C387.147 276.517 387.427 276.298 387.754 276.182C387.996 276.099 388.135 276.117 388.145 276.136C388.154 276.154 387.596 276.312 387.261 276.945C387.163 277.113 387.116 277.307 387.126 277.502C387.136 277.697 387.202 277.885 387.317 278.042C387.467 278.241 387.668 278.396 387.899 278.491C388.13 278.586 388.381 278.617 388.628 278.582C388.859 278.537 389.07 278.425 389.236 278.259C389.402 278.094 389.514 277.882 389.558 277.652C389.576 277.461 389.535 277.269 389.44 277.103C389.346 276.936 389.202 276.803 389.028 276.722C388.656 276.52 388.229 276.442 387.81 276.498Z" fill="#455A64"/>
<path d="M398.914 278.07C398.784 278.07 398.598 277.419 398.505 276.601C398.412 275.783 398.44 275.104 398.57 275.094C398.7 275.085 398.886 275.736 398.979 276.554C399.072 277.373 399.044 278.07 398.914 278.07Z" fill="#455A64"/>
<path d="M400.588 277.894C400.458 277.894 400.346 277.196 400.346 276.331C400.346 275.467 400.439 274.769 400.579 274.769C400.718 274.769 400.82 275.467 400.82 276.331C400.82 277.196 400.727 277.894 400.588 277.894Z" fill="#455A64"/>
<path d="M371.451 278.935C371.321 278.935 371.116 278.163 370.995 277.186C370.875 276.21 370.884 275.392 370.995 275.382C371.107 275.373 371.33 276.154 371.451 277.14C371.572 278.126 371.581 278.926 371.451 278.935Z" fill="#455A64"/>
<path d="M373.488 279.084C373.059 278.564 372.845 277.898 372.893 277.224C372.792 276.574 372.942 275.909 373.311 275.364C373.451 275.364 373.311 276.22 373.377 277.224C373.442 278.229 373.618 279.047 373.488 279.084Z" fill="#455A64"/>
<path d="M365.843 277.065C365.853 277.288 365.825 277.511 365.76 277.725C365.643 278.329 365.481 278.922 365.276 279.502C364.586 281.454 363.574 283.278 362.281 284.895C360.939 286.564 359.345 288.013 357.557 289.192C357.007 289.555 356.436 289.884 355.846 290.178C355.631 290.299 355.403 290.395 355.167 290.466C355.167 290.41 356.041 289.927 357.371 288.969C359.082 287.755 360.615 286.309 361.928 284.672C363.195 283.077 364.226 281.307 364.988 279.418C365.555 277.976 365.769 277.046 365.843 277.065Z" fill="#455A64"/>
<path d="M418.109 287.259C417.871 287.33 417.624 287.367 417.375 287.37C416.7 287.424 416.022 287.424 415.347 287.37C413.14 287.158 411.015 286.418 409.154 285.213C407.39 284.058 405.968 282.452 405.034 280.563C404.762 280.013 404.55 279.437 404.401 278.842C404.326 278.634 404.291 278.413 404.299 278.191C404.373 278.191 404.578 279.121 405.313 280.451C406.294 282.25 407.702 283.78 409.414 284.906C411.217 286.07 413.257 286.819 415.384 287.101C417.049 287.287 418.1 287.184 418.109 287.259Z" fill="#455A64"/>
<path d="M378.724 363.872C378.724 363.974 374.688 363.1 369.777 361.938C364.867 360.775 360.905 359.734 360.942 359.631C360.979 359.529 364.978 360.394 369.889 361.566C374.799 362.737 378.752 363.77 378.724 363.872Z" fill="#455A64"/>
<path d="M417.672 358.366C417.728 358.459 414.241 360.273 409.888 362.43C405.536 364.588 401.946 366.253 401.89 366.15C401.835 366.048 405.322 364.234 409.674 362.086C414.027 359.938 417.617 358.273 417.672 358.366Z" fill="#455A64"/>
<path d="M341.794 222.819L345.095 226.958V219.843H355.511C355.511 219.843 356.664 236.128 356.441 239.597C356.194 241.405 355.767 243.184 355.167 244.907C354.856 245.91 354.292 246.816 353.529 247.537C352.766 248.258 351.829 248.771 350.811 249.025C349.792 249.279 348.725 249.267 347.712 248.988C346.7 248.71 345.776 248.176 345.03 247.437C343.864 246.303 342.777 245.091 341.775 243.81C337.125 237.858 329.462 223.35 329.462 223.35L337.497 218.551L341.794 222.819Z" fill="#FFBF9D"/>
<path d="M341.133 222.056C341.527 222.717 341.981 223.34 342.491 223.916C343.421 225.004 344.593 226.501 345.979 228.12C347.364 229.738 348.685 231.17 349.699 232.146C350.212 232.71 350.808 233.193 351.466 233.579C350.994 232.988 350.484 232.429 349.94 231.905C349.01 230.882 347.727 229.422 346.341 227.803C343.598 224.511 341.254 221.944 341.133 222.056Z" fill="#FF9A6C"/>
<path d="M365.546 172.794L376.529 168.479L396.757 167.335L406.261 170.952L393.232 178.188L381.998 177.779L365.546 172.794Z" fill="#FFBF9D"/>
<path d="M352.591 276.117C353.586 276.284 419.858 279.102 419.858 279.102L417.57 219.48L417.375 207.78L413.655 172.338C413.655 172.338 403.741 168.925 398.691 167.297C398.691 167.297 393.371 172.877 383.253 172.691C373.367 172.552 371.303 170.32 371.303 170.32L357.483 175.621C357.483 175.621 347.653 179.146 345.96 183.498C344.267 187.85 341.31 211.909 341.31 211.909H355.641L355.26 254.662L352.591 276.117Z" fill="#455A64"/>
<g opacity="0.2">
<path d="M394.264 196.584L396.319 211.612L406.261 216.048L413.608 209.79V195.84L394.264 196.584Z" fill="black"/>
</g>
<path d="M413.348 200.88C413.348 201.001 409.219 201.103 404.122 201.103C399.026 201.103 394.887 201.001 394.887 200.88C397.96 200.647 401.042 200.569 404.122 200.648C407.199 200.569 410.278 200.647 413.348 200.88Z" fill="#263238"/>
<path d="M348.127 189.72C348.174 189.851 348.212 189.984 348.239 190.12C348.304 190.418 348.387 190.79 348.499 191.264C348.856 192.699 349.297 194.112 349.82 195.496C350.48 197.272 351.41 199.364 352.554 201.708C353.698 204.052 354.609 206.851 355.623 209.827C355.623 213.398 355.623 217.267 355.548 221.387C355.455 230.501 355.362 238.75 355.307 244.767C355.251 247.724 355.214 250.133 355.176 251.854C355.176 252.653 355.158 253.295 355.121 253.779C355.125 254.003 355.109 254.227 355.074 254.448C355.058 254.222 355.058 253.995 355.074 253.769C355.074 253.298 355.074 252.656 355.074 251.844C355.074 250.133 355.074 247.715 355.074 244.758C355.074 238.741 355.148 230.491 355.195 221.387C355.195 217.304 355.269 213.398 355.297 209.827V209.892C354.302 206.916 353.344 204.154 352.303 201.782C351.308 199.74 350.42 197.648 349.643 195.514C349.14 194.117 348.733 192.688 348.425 191.236C348.332 190.725 348.257 190.306 348.22 190.064C348.178 189.953 348.147 189.838 348.127 189.72Z" fill="#263238"/>
<path d="M418.389 182.763C418.421 183.187 418.421 183.613 418.389 184.037C418.389 184.967 418.314 186.102 418.258 187.497C418.137 190.492 417.979 194.491 417.803 198.908C417.626 203.326 417.421 207.334 417.291 210.329C417.208 211.724 417.142 212.886 417.087 213.788C417.085 214.213 417.041 214.637 416.956 215.053C416.923 214.629 416.923 214.203 416.956 213.779C416.956 212.849 416.956 211.714 417.021 210.319C417.096 207.39 417.226 203.354 417.412 198.899C417.598 194.444 417.803 190.399 417.989 187.488C418.082 186.028 418.175 184.847 418.258 184.028C418.265 183.604 418.308 183.18 418.389 182.763Z" fill="#263238"/>
<g opacity="0.3">
<path d="M348.164 191.905C347.912 198.45 350.251 204.829 354.674 209.659C353.326 203.512 349.959 197.792 348.164 191.905Z" fill="black"/>
</g>
<g opacity="0.3">
<path d="M377.273 250.895C380.389 250.48 383.23 248.898 385.224 246.468C387.322 244.126 389.119 241.529 390.572 238.74C392.447 234.946 393.511 230.804 393.697 226.576C389.837 236.927 384.183 245.111 377.273 250.895Z" fill="black"/>
</g>
<path d="M394.925 222.066C394.918 222.194 394.9 222.322 394.869 222.447C394.804 222.745 394.72 223.098 394.627 223.526C394.534 223.954 394.385 224.558 394.181 225.209C393.976 225.86 393.781 226.604 393.483 227.413C392.832 229.317 392.068 231.18 391.195 232.993C389.062 237.432 386.323 241.554 383.058 245.241C381.725 246.746 380.296 248.163 378.78 249.482C378.157 250.068 377.534 250.533 377.004 250.961C376.473 251.389 376.008 251.733 375.609 252.003L374.679 252.626C374.465 252.756 374.353 252.83 374.344 252.812C374.426 252.714 374.519 252.626 374.623 252.551L375.488 251.863C375.869 251.584 376.325 251.221 376.836 250.775C377.348 250.329 377.952 249.845 378.566 249.259C380.035 247.91 381.429 246.482 382.742 244.981C384.332 243.128 385.813 241.184 387.178 239.159C388.512 237.119 389.729 235.004 390.823 232.826C391.703 231.036 392.488 229.202 393.176 227.33C393.492 226.539 393.716 225.795 393.93 225.153C394.143 224.512 394.32 223.954 394.45 223.498C394.581 223.042 394.674 222.735 394.767 222.447C394.86 222.159 394.906 222.057 394.925 222.066Z" fill="#263238"/>
<path d="M393.009 203.41C392.995 203.616 392.967 203.821 392.925 204.024C392.851 204.461 392.749 205.037 392.628 205.754C392.507 206.47 392.321 207.418 392.051 208.469C391.781 209.52 391.54 210.738 391.121 212.04C390.935 212.691 390.73 213.38 390.517 214.096C390.303 214.812 390.024 215.537 389.763 216.29C389.27 217.825 388.601 219.406 387.903 221.08C384.848 228.305 380.743 235.04 375.72 241.066C374.539 242.423 373.432 243.744 372.298 244.879C371.74 245.455 371.219 246.032 370.68 246.543C370.14 247.055 369.629 247.557 369.127 248.022C368.197 248.952 367.192 249.761 366.337 250.468C365.481 251.175 364.793 251.761 364.179 252.216L362.775 253.277C362.621 253.411 362.453 253.526 362.272 253.621C362.408 253.471 362.558 253.334 362.719 253.211L364.067 252.086C364.663 251.612 365.388 251.026 366.178 250.291C366.969 249.557 367.927 248.775 368.885 247.799L370.41 246.311C370.94 245.79 371.452 245.213 372 244.637C373.126 243.493 374.214 242.172 375.385 240.805C380.365 234.789 384.461 228.094 387.55 220.922C388.238 219.257 388.908 217.695 389.41 216.179C389.68 215.416 389.959 214.7 390.182 213.993C390.405 213.287 390.61 212.608 390.814 211.957C391.242 210.664 391.512 209.464 391.8 208.413C392.088 207.362 392.293 206.46 392.442 205.716C392.59 204.972 392.73 204.442 392.823 204.005C392.863 203.801 392.926 203.601 393.009 203.41Z" fill="#263238"/>
<path d="M340.64 184.875L366.159 223.675C366.281 223.858 366.348 224.073 366.351 224.293C366.354 224.513 366.293 224.729 366.176 224.915C366.06 225.102 365.891 225.251 365.692 225.344C365.493 225.438 365.271 225.471 365.053 225.442L335.665 221.722C335.51 221.7 335.361 221.648 335.227 221.568C335.093 221.488 334.976 221.382 334.884 221.257L306.816 182.922C306.677 182.745 306.593 182.531 306.574 182.306C306.556 182.082 306.603 181.856 306.711 181.659C306.819 181.461 306.982 181.299 307.181 181.193C307.38 181.087 307.605 181.041 307.83 181.062L338.064 183.294C338.586 183.341 339.09 183.509 339.537 183.783C339.984 184.057 340.362 184.431 340.64 184.875Z" fill="#E0E0E0"/>
<path d="M340.64 184.874C340.577 184.748 340.499 184.629 340.408 184.521C340.149 184.2 339.834 183.929 339.478 183.721C338.872 183.405 338.199 183.242 337.516 183.247L334.8 183.024L317.372 181.657L311.597 181.21L308.528 180.978C308.258 180.978 308.025 180.978 307.718 180.978C307.404 180.988 307.104 181.11 306.872 181.322C306.636 181.537 306.484 181.829 306.443 182.146C306.402 182.463 306.475 182.784 306.649 183.052L314.814 194.258C320.58 202.135 326.904 210.794 333.554 219.889C333.982 220.456 334.363 221.005 334.828 221.6C334.971 221.758 335.149 221.879 335.349 221.954C335.532 222.018 335.723 222.055 335.916 222.065L336.958 222.195L341.068 222.716L349.103 223.721L364.3 225.581C364.616 225.581 364.876 225.664 365.23 225.683C365.411 225.684 365.59 225.65 365.758 225.581C365.926 225.512 366.078 225.411 366.206 225.283C366.45 225.033 366.592 224.702 366.606 224.353C366.592 224.013 366.468 223.687 366.253 223.423L364.281 220.41L360.561 214.83L353.902 204.758C349.829 198.629 346.537 193.654 344.24 190.203L341.589 186.251C341.291 185.823 341.059 185.479 340.882 185.237C340.807 185.116 340.723 185.001 340.631 184.893C340.695 185.021 340.766 185.145 340.845 185.265L341.505 186.307C342.101 187.237 342.965 188.585 344.072 190.306L353.614 204.953L360.226 215.053L363.946 220.679L365.881 223.628C366.048 223.823 366.146 224.068 366.16 224.325C366.15 224.569 366.051 224.801 365.881 224.976C365.707 225.148 365.474 225.245 365.23 225.246C364.979 225.246 364.634 225.171 364.346 225.143L349.122 223.2L341.087 222.186L336.976 221.665L335.944 221.535C335.79 221.522 335.637 221.494 335.488 221.451C335.357 221.401 335.24 221.321 335.144 221.219C334.735 220.661 334.326 220.112 333.917 219.545C327.258 210.468 320.897 201.819 315.149 193.942C312.257 190.017 309.523 186.279 306.956 182.782C306.86 182.644 306.803 182.482 306.792 182.315C306.781 182.147 306.815 181.979 306.891 181.829C306.967 181.68 307.083 181.553 307.225 181.464C307.368 181.375 307.532 181.325 307.7 181.322C307.914 181.322 308.211 181.322 308.462 181.368L311.531 181.592L317.316 182.001L334.8 183.21L337.534 183.396C338.201 183.373 338.862 183.517 339.459 183.814C339.925 184.079 340.328 184.44 340.64 184.874Z" fill="#263238"/>
<path d="M306.816 182.95C307.017 183.002 307.223 183.033 307.43 183.043L309.216 183.229L315.856 183.815L338.436 185.675L338.26 185.573C339.673 187.675 341.133 189.851 342.594 192.083C348.555 201.243 353.753 209.669 357.687 215.658C359.64 218.662 361.268 221.062 362.402 222.717L363.723 224.577C363.866 224.804 364.031 225.016 364.216 225.209C364.094 224.972 363.957 224.742 363.807 224.521L362.561 222.577L357.976 215.444C354.126 209.409 348.964 200.964 343.003 191.794C341.543 189.535 340.073 187.358 338.65 185.284L338.585 185.191H338.52L315.93 183.517L309.281 183.071L307.486 182.969C307.264 182.946 307.04 182.94 306.816 182.95Z" fill="#263238"/>
<path d="M324.31 188.874C324.327 188.796 324.36 188.723 324.406 188.659C324.452 188.595 324.511 188.541 324.579 188.5C324.647 188.459 324.722 188.433 324.801 188.422C324.879 188.411 324.959 188.416 325.035 188.437C325.335 188.505 325.609 188.656 325.826 188.874C325.964 189 326.053 189.17 326.079 189.355C326.104 189.54 326.064 189.729 325.965 189.887C325.677 190.25 325.035 190.111 324.719 189.813C324.576 189.704 324.464 189.561 324.392 189.397C324.321 189.232 324.292 189.052 324.31 188.874Z" fill="white"/>
<path d="M338.036 210.618C338.036 210.618 339.189 207.828 336.251 207.493C332.697 207.308 329.137 207.308 325.584 207.493C325.584 207.493 321.352 207.939 322.245 210.971C322.245 210.971 319.752 213.203 321.092 215.621C322.431 218.039 322.952 217.314 322.952 217.314C322.952 217.314 322.598 220.262 324.812 220.699C324.812 220.699 327.23 223.554 329.462 223.377C331.694 223.2 341.133 218.653 341.756 217.797C342.379 216.942 343.272 216.402 342.742 215.407C342.742 215.407 343.895 212.794 341.403 212.394C341.421 212.347 341.245 210.18 338.036 210.618Z" fill="#FFBF9D"/>
<path d="M324.626 211.612C325.28 211.749 325.949 211.799 326.616 211.761C327.844 211.761 329.536 211.761 331.406 211.761C333.017 211.808 334.628 211.715 336.223 211.482C337.488 211.185 337.99 210.441 337.934 210.422C337.388 210.768 336.783 211.011 336.149 211.138C334.986 211.333 333.266 211.212 331.396 211.278C329.527 211.343 327.834 211.361 326.607 211.417C325.941 211.403 325.276 211.468 324.626 211.612Z" fill="#FF9A6C"/>
<path d="M326.728 216.076C326.924 216.191 327.143 216.264 327.369 216.29C327.981 216.414 328.607 216.455 329.229 216.411C330.137 216.342 331.035 216.177 331.908 215.918C332.893 215.648 333.944 215.267 335.051 214.932C336.079 214.592 337.144 214.37 338.222 214.272C339.155 214.359 340.092 214.171 340.919 213.733C341.242 213.514 341.471 213.182 341.561 212.803C341.621 212.519 341.581 212.224 341.449 211.966C341.217 211.547 340.901 211.519 340.91 211.538C340.919 211.556 341.133 211.668 341.273 212.049C341.362 212.308 341.356 212.59 341.255 212.844C341.154 213.098 340.966 213.308 340.724 213.435C339.93 213.785 339.057 213.916 338.194 213.816C337.078 213.886 335.974 214.098 334.912 214.449L331.787 215.481C330.942 215.743 330.077 215.936 329.201 216.058C328.378 216.114 327.552 216.12 326.728 216.076Z" fill="#FF9A6C"/>
<path d="M329.889 219.843C330.567 219.804 331.236 219.676 331.88 219.462C333.089 219.155 334.744 218.68 336.53 218.094C338.315 217.509 339.952 216.904 341.105 216.43C341.76 216.224 342.386 215.933 342.965 215.565C342.909 215.435 340.008 216.495 336.455 217.62C332.903 218.745 329.852 219.713 329.889 219.843Z" fill="#FF9A6C"/>
<path d="M329.136 223.34C329.692 223.388 330.252 223.325 330.782 223.154C332.08 222.839 333.342 222.393 334.549 221.824C335.963 221.182 337.199 220.522 338.092 220.047C338.602 219.832 339.078 219.544 339.506 219.192C337.725 219.767 335.997 220.499 334.344 221.377C331.564 222.716 329.118 223.2 329.136 223.34Z" fill="#FF9A6C"/>
<path d="M423.085 196.751C423.085 196.751 417.077 220.819 409.572 229.71C402.299 238.322 390.907 234.36 386.964 223.2C383.021 212.04 375.99 186.642 375.99 186.642L384.62 180.039L399.5 208.952L406.224 189.246L423.085 196.751Z" fill="#FFBF9D"/>
<path d="M376.39 187.331L370.056 178.151C369.135 177.952 368.232 177.672 367.359 177.314C366.643 176.896 365.937 173.25 365.955 172.544C365.974 171.837 364.728 170.172 365.23 169.698C365.732 169.223 367.425 169.196 367.332 168.517C367.332 168.368 366.076 166.843 367.062 165.727C367.605 165.367 368.211 165.112 368.847 164.973L368.745 161.467C368.745 161.467 370.605 157.338 372.567 158.835C372.567 158.835 379.849 164.415 380.584 165.345C381.319 166.275 384.127 177.891 384.62 180.077" fill="#FFBF9D"/>
<path d="M384.62 180.057C384.61 179.85 384.579 179.644 384.527 179.443C384.425 178.997 384.304 178.42 384.146 177.695C383.811 176.17 383.3 173.975 382.612 171.269C382.258 169.911 381.877 168.479 381.384 166.851C381.263 166.461 381.133 166.061 380.965 165.652C380.773 165.235 380.479 164.873 380.11 164.601C379.44 164.015 378.743 163.438 378.027 162.852C376.585 161.69 375.051 160.481 373.46 159.244C373.059 158.886 372.608 158.589 372.121 158.36C371.837 158.292 371.54 158.292 371.256 158.36C370.972 158.428 370.707 158.562 370.484 158.751C369.654 159.474 368.99 160.369 368.541 161.374V161.429C368.541 161.773 368.541 162.136 368.541 162.499C368.541 163.317 368.541 164.136 368.615 164.935L368.782 164.712C368.343 164.818 367.914 164.961 367.499 165.14C367.267 165.236 367.056 165.375 366.876 165.549C366.715 165.737 366.595 165.955 366.522 166.191C366.404 166.655 366.443 167.146 366.634 167.586C366.711 167.796 366.808 167.998 366.922 168.19L367.08 168.46V168.525C367.085 168.547 367.085 168.569 367.08 168.59C367.08 168.665 366.895 168.776 366.718 168.841C366.541 168.907 366.346 168.972 366.15 169.037C365.949 169.091 365.75 169.156 365.555 169.232C365.311 169.302 365.098 169.453 364.951 169.66C364.854 169.898 364.854 170.165 364.951 170.404C365.007 170.604 365.078 170.8 365.165 170.99C365.323 171.362 365.499 171.715 365.63 172.059C365.696 172.216 365.733 172.383 365.741 172.552C365.745 172.752 365.764 172.951 365.797 173.147C365.853 173.529 365.918 173.901 366.002 174.273C366.146 174.989 366.342 175.695 366.588 176.384C366.705 176.744 366.895 177.076 367.146 177.36C367.449 177.557 367.782 177.704 368.131 177.797C368.773 177.993 369.405 178.151 369.991 178.29L369.889 178.225L374.539 184.884L375.841 186.688C375.985 186.906 376.147 187.111 376.325 187.302C376.205 187.071 376.072 186.847 375.925 186.632L374.697 184.772C373.59 183.126 372.037 180.829 370.131 178.021V177.965H370.14C369.545 177.816 368.922 177.649 368.28 177.453C367.982 177.368 367.698 177.243 367.434 177.081C367.234 176.836 367.082 176.555 366.987 176.254C366.75 175.58 366.564 174.89 366.43 174.189C366.355 173.826 366.29 173.464 366.234 173.092C366.234 172.915 366.234 172.72 366.234 172.552C366.226 172.336 366.182 172.122 366.104 171.92C365.965 171.538 365.788 171.185 365.639 170.822C365.558 170.652 365.492 170.475 365.444 170.292C365.393 170.154 365.393 170.003 365.444 169.864C365.551 169.753 365.686 169.673 365.834 169.632C366.02 169.559 366.209 169.497 366.402 169.446C366.597 169.381 366.802 169.325 367.006 169.241C367.262 169.162 367.476 168.985 367.601 168.748C367.635 168.673 367.651 168.59 367.648 168.507C367.645 168.448 367.629 168.391 367.601 168.339V168.265L367.443 167.995C367.343 167.819 367.256 167.635 367.183 167.446C367.033 167.097 367 166.709 367.09 166.34C367.139 166.161 367.228 165.996 367.35 165.856C367.49 165.733 367.651 165.636 367.825 165.568C368.216 165.4 368.62 165.263 369.033 165.159L369.201 165.112V164.935C369.201 164.136 369.154 163.327 369.127 162.508C369.127 162.145 369.127 161.773 369.127 161.439V161.541C369.54 160.602 370.152 159.765 370.921 159.086C371.086 158.933 371.286 158.824 371.504 158.767C371.721 158.71 371.949 158.708 372.168 158.76C372.601 158.973 373.004 159.242 373.367 159.56C374.967 160.797 376.501 161.997 377.943 163.15C378.668 163.726 379.366 164.294 380.026 164.861C380.36 165.098 380.626 165.419 380.798 165.791C380.956 166.172 381.086 166.572 381.217 166.954C381.709 168.516 382.146 169.995 382.481 171.334C383.179 174.003 383.755 176.17 384.155 177.723C384.351 178.439 384.499 179.016 384.611 179.453C384.593 179.654 384.596 179.857 384.62 180.057Z" fill="#FF9A6C"/>
<path d="M368.847 164.973C368.847 165.047 369.582 164.973 370.707 165.103C371.381 165.207 372.046 165.359 372.697 165.559C373.552 165.68 374.419 165.68 375.273 165.559C376.007 165.456 376.754 165.521 377.458 165.75C378.162 165.979 378.805 166.365 379.338 166.88C379.75 167.337 380.08 167.863 380.314 168.433C380.318 168.101 380.255 167.773 380.127 167.467C379.999 167.162 379.809 166.886 379.57 166.656C379.086 166.124 378.489 165.708 377.822 165.438C377.003 165.12 376.118 165.008 375.246 165.113C374.427 165.214 373.599 165.214 372.781 165.113C372.109 164.925 371.421 164.804 370.726 164.75C370.091 164.699 369.452 164.775 368.847 164.973Z" fill="#FF9A6C"/>
<path d="M371.423 164.778C371.526 164.834 371.823 164.406 371.786 163.801C371.749 163.197 371.405 162.816 371.312 162.871C371.219 162.927 371.312 163.336 371.312 163.801C371.312 164.266 371.303 164.731 371.423 164.778Z" fill="#FF9A6C"/>
<path d="M367.108 168.646C368.948 168.822 370.805 168.677 372.595 168.219C373.246 168.005 373.93 167.917 374.614 167.958C375.142 168.075 375.609 168.383 375.925 168.823C376.199 169.261 376.441 169.718 376.65 170.19C376.682 169.627 376.522 169.069 376.195 168.609C375.86 168.068 375.325 167.68 374.707 167.53C373.968 167.444 373.22 167.517 372.512 167.744C369.564 168.414 367.108 168.516 367.108 168.646Z" fill="#FF9A6C"/>
<path d="M366.141 171.957C366.585 172.06 367.046 172.06 367.49 171.957C368.317 171.864 369.433 171.576 370.642 171.334C371.201 171.209 371.772 171.153 372.344 171.166C372.789 171.174 373.218 171.332 373.562 171.613C373.871 171.897 374.082 172.271 374.167 172.682C374.167 172.682 374.251 172.561 374.241 172.31C374.203 171.956 374.042 171.627 373.786 171.38C373.409 171.009 372.91 170.787 372.381 170.757C371.758 170.714 371.131 170.761 370.521 170.897C369.275 171.139 368.196 171.473 367.397 171.641C366.968 171.703 366.548 171.809 366.141 171.957Z" fill="#FF9A6C"/>
<path d="M368.28 174.579C368.206 174.635 368.829 175.286 369.963 175.286L369.74 175.091C369.74 175.286 369.74 175.482 369.805 175.677C369.835 176.474 370.012 177.259 370.326 177.993C370.45 177.208 370.424 176.406 370.252 175.63L370.168 175.044V174.84H369.973C369.4 174.816 368.833 174.729 368.28 174.579Z" fill="#FF9A6C"/>
<path d="M413.58 172.376C413.58 172.376 425.884 175.352 425.856 191.673C425.828 207.995 422.136 216.048 422.136 216.048L399.454 203.67L404.55 190.994L413.58 172.376Z" fill="#455A64"/>
<path d="M422.136 216.048C421.973 216.001 421.816 215.932 421.671 215.844L420.35 215.174L415.514 212.626L399.342 203.912L399.156 203.819L399.23 203.623L400.448 200.443C401.899 196.676 403.238 193.087 404.54 189.822C405.173 188.195 405.768 186.642 406.335 185.172C406.83 183.807 407.43 182.483 408.13 181.21C409.065 179.307 410.474 177.677 412.222 176.477C412.713 176.169 413.255 175.952 413.822 175.835C413.966 175.804 414.112 175.786 414.259 175.779H414.417C413.673 175.934 412.964 176.224 412.325 176.635C410.647 177.862 409.306 179.494 408.428 181.378C407.76 182.646 407.185 183.96 406.707 185.312C406.159 186.772 405.573 188.325 404.95 189.962L400.895 200.601L399.677 203.782L399.565 203.484L415.71 212.347L420.471 215.025L421.745 215.769C421.885 215.848 422.016 215.941 422.136 216.048Z" fill="#263238"/>
</svg>
